<svg width="18" height="13" viewBox="0 0 18 13" fill="none" xmlns="http://www.w3.org/2000/svg">
<g clip-path="url(#clip0)">
<path d="M-4 0V13H22V0H-4Z" fill="#012169"></path>
<path d="M-4 0L22 13L-4 0ZM22 0L-4 13L22 0Z" fill="black"></path>
<path d="M22 0L-4 13M-4 0L22 13L-4 0Z" stroke="white" stroke-width="2.6"></path>
<path d="M-4 0L22 13L-4 0ZM22 0L-4 13L22 0Z" fill="black"></path>
<path d="M22 0L-4 13M-4 0L22 13L-4 0Z" stroke="#C8102E" stroke-width="1.73333"></path>
<path d="M9 0V13V0ZM-4 6.5H22H-4Z" fill="black"></path>
<path d="M-4 6.5H22M9 0V13V0Z" stroke="white" stroke-width="4.33333"></path>
<path d="M9 0V13V0ZM-4 6.5H22H-4Z" fill="black"></path>
<path d="M-4 6.5H22M9 0V13V0Z" stroke="#C8102E" stroke-width="2.6"></path>
</g>
<defs>
<clipPath id="clip0">
<rect width="18" height="13" rx="2" fill="white"></rect>
</clipPath>
</defs>
</svg>