<svg width="22" height="22" viewBox="0 0 22 22" fill="none" xmlns="http://www.w3.org/2000/svg">
                                <path d="M4.8544 2.45229C4.34103 2.14523 3.72918 2.11777 3.19557 2.37339L12.1425 11.2819L15.0678 8.36179L4.8544 2.45229ZM2.37354 3.19789C2.26067 3.43534 2.19995 3.69947 2.19995 3.97133V20.267C2.19995 20.5401 2.26106 20.8003 2.3751 21.0328L11.3185 12.1045L2.37354 3.19789ZM12.1437 12.9259L3.21117 21.8433C3.44821 21.9524 3.70042 22 3.95224 22C4.26322 22 4.57343 21.9261 4.85444 21.7582L15.0698 15.8398L12.1437 12.9259ZM18.9577 10.6125C18.9542 10.6102 18.9503 10.6079 18.9468 10.6059L16.111 8.96508L12.9673 12.1033L16.1129 15.2354C16.1129 15.2354 18.9542 13.5895 18.9577 13.5876C19.4851 13.2693 19.7999 12.7132 19.7999 12.0999C19.7999 11.4865 19.4851 10.9304 18.9577 10.6125Z" fill="white"></path>
</svg>