<svg width="22" height="22" viewBox="0 0 22 22" fill="none" xmlns="http://www.w3.org/2000/svg">
                                <path d="M7.96021 21.9999C4.68595 21.981 1.97754 15.2972 1.97754 11.8932C1.97754 6.3329 6.14873 5.1156 7.75628 5.1156C8.48073 5.1156 9.2543 5.4001 9.9366 5.65185C10.4137 5.82746 10.9072 6.00875 11.1816 6.00875C11.3459 6.00875 11.733 5.85453 12.0748 5.71923C12.8036 5.42906 13.7106 5.06842 14.7668 5.06842C14.7687 5.06842 14.7712 5.06842 14.7731 5.06842C15.5617 5.06842 17.9529 5.2415 19.3905 7.40042L19.7273 7.90646L19.2426 8.27217C18.5503 8.79458 17.287 9.74755 17.287 11.6352C17.287 13.8709 18.7177 14.7307 19.405 15.1442C19.7084 15.3268 20.0225 15.515 20.0225 15.9266C20.0225 16.1954 17.8774 21.9666 14.7624 21.9666C14.0002 21.9666 13.4614 21.7375 12.9861 21.5354C12.5053 21.3308 12.0904 21.1546 11.405 21.1546C11.0576 21.1546 10.6182 21.3189 10.1531 21.4933C9.51744 21.7305 8.79797 21.9999 7.98161 21.9999H7.96021Z" fill="white"></path>
                                <path d="M15.0967 0C15.1779 2.92514 13.0859 4.95447 10.9964 4.8272C10.6521 2.49283 13.0857 0 15.0967 0Z" fill="white"></path>
 </svg>