<svg width="408" height="100" viewBox="0 0 408 100" fill="none" xmlns="http://www.w3.org/2000/svg">
<path d="M87 50H320L325.2 21H92.2L87 50Z" fill="#FFE402"/>
<path d="M109.696 37.5381C109.375 38.7145 108.951 39.7259 108.427 40.5723C108.748 40.8177 109.1 41.042 109.48 41.2451C109.861 41.4398 110.297 41.6048 110.788 41.7402L108.985 44.4443C108.368 44.2835 107.839 44.0719 107.398 43.8096C106.958 43.5472 106.561 43.2552 106.205 42.9336C104.885 43.8307 103.285 44.2793 101.406 44.2793C100.458 44.2793 99.5908 44.165 98.8037 43.9365C98.0251 43.6995 97.3564 43.3568 96.7979 42.9082C96.2393 42.4596 95.8034 41.9095 95.4902 41.2578C95.1855 40.5977 95.0332 39.8444 95.0332 38.998C95.0332 38.7103 95.0501 38.4225 95.084 38.1348C95.1178 37.8385 95.1813 37.5296 95.2744 37.208L98.4482 25.3887H102.181L98.791 37.9697C98.7064 38.2744 98.6641 38.5706 98.6641 38.8584C98.6641 39.2393 98.736 39.5693 98.8799 39.8486C99.0238 40.1279 99.2184 40.3649 99.4639 40.5596C99.7178 40.7458 100.014 40.8854 100.353 40.9785C100.691 41.0716 101.059 41.1182 101.457 41.1182C101.931 41.1182 102.363 41.0716 102.752 40.9785C103.141 40.877 103.497 40.7331 103.818 40.5469C103.522 40.3014 103.196 40.0856 102.841 39.8994C102.485 39.7048 102.079 39.5482 101.622 39.4297L103.158 36.8652C103.7 37.0091 104.178 37.1953 104.593 37.4238C105.007 37.6439 105.393 37.8936 105.748 38.1729C105.875 37.8597 105.989 37.5169 106.091 37.1445L109.239 25.3887H112.984L109.696 37.5381ZM120.221 44L120.538 42.8447C120.597 42.6331 120.661 42.4385 120.729 42.2607C120.805 42.083 120.864 41.9349 120.906 41.8164C120.652 42.1973 120.365 42.54 120.043 42.8447C119.721 43.1494 119.374 43.4076 119.002 43.6191C118.63 43.8307 118.24 43.9915 117.834 44.1016C117.428 44.2201 117.013 44.2793 116.59 44.2793C116.04 44.2793 115.557 44.1989 115.143 44.0381C114.728 43.8857 114.381 43.6742 114.102 43.4033C113.831 43.1325 113.623 42.8151 113.479 42.4512C113.344 42.0788 113.276 41.681 113.276 41.2578C113.276 40.987 113.293 40.7077 113.327 40.4199C113.353 40.1322 113.403 39.8529 113.479 39.582L116.526 28.2832H113.746L114.495 25.3887H120.716L116.818 39.7725C116.768 39.9671 116.725 40.1449 116.691 40.3057C116.666 40.458 116.653 40.5977 116.653 40.7246C116.653 40.9447 116.729 41.1224 116.882 41.2578C117.034 41.3932 117.233 41.4609 117.479 41.4609C117.876 41.4609 118.308 41.3128 118.773 41.0166C119.239 40.7119 119.696 40.2887 120.145 39.7471C120.602 39.2054 121.025 38.5537 121.414 37.792C121.803 37.0303 122.121 36.1924 122.366 35.2783L123.636 30.5176H127.038L123.42 44H120.221ZM134.782 43.1113C134.841 42.8997 134.905 42.7051 134.973 42.5273C135.049 42.3496 135.108 42.2015 135.15 42.083C134.947 42.3877 134.693 42.6755 134.389 42.9463C134.092 43.2087 133.762 43.4414 133.398 43.6445C133.035 43.8392 132.645 43.9915 132.23 44.1016C131.824 44.2201 131.41 44.2793 130.986 44.2793C130.428 44.2793 129.945 44.1904 129.539 44.0127C129.141 43.835 128.811 43.6022 128.549 43.3145C128.295 43.0182 128.104 42.6797 127.978 42.2988C127.859 41.9095 127.8 41.5033 127.8 41.0801C127.8 40.8346 127.817 40.585 127.851 40.3311C127.884 40.0771 127.935 39.8275 128.003 39.582L130.453 30.5176H133.855L131.342 39.7725C131.291 39.9671 131.249 40.1449 131.215 40.3057C131.189 40.458 131.177 40.5977 131.177 40.7246C131.177 41.2155 131.448 41.4609 131.989 41.4609C132.353 41.4609 132.772 41.3001 133.246 40.9785C133.72 40.6484 134.186 40.2041 134.643 39.6455C135.108 39.0785 135.54 38.4225 135.938 37.6777C136.344 36.9245 136.661 36.1247 136.89 35.2783L139.518 25.3887H142.92L137.347 46.2725H140.127L139.34 49.167H133.157L134.782 43.1113ZM144.646 30.5176H146.614C147.181 29.7812 147.799 29.0999 148.468 28.4736C149.136 27.8473 149.835 27.3057 150.562 26.8486C151.299 26.3916 152.061 26.0361 152.848 25.7822C153.635 25.5199 154.435 25.3887 155.247 25.3887H157.608L156.821 28.2832H154.93C154.193 28.2832 153.449 28.4948 152.695 28.918C151.942 29.3327 151.21 29.887 150.499 30.5811C151.21 30.6657 151.836 30.835 152.378 31.0889C152.928 31.3428 153.385 31.6644 153.749 32.0537C154.121 32.443 154.401 32.8916 154.587 33.3994C154.773 33.9072 154.866 34.4616 154.866 35.0625C154.866 35.3418 154.841 35.6465 154.79 35.9766C154.748 36.2982 154.68 36.6325 154.587 36.9795L152.708 44H149.509L149.826 42.8447C149.885 42.6331 149.949 42.4385 150.017 42.2607C150.093 42.083 150.152 41.9349 150.194 41.8164C149.687 42.5866 149.094 43.1917 148.417 43.6318C147.74 44.0635 146.978 44.2793 146.132 44.2793C145.539 44.2793 145.023 44.1862 144.583 44C144.151 43.8223 143.792 43.5684 143.504 43.2383C143.225 42.8997 143.013 42.4977 142.869 42.0322C142.734 41.5583 142.666 41.0378 142.666 40.4707C142.666 39.946 142.713 39.3958 142.806 38.8203C142.899 38.2363 143.034 37.6439 143.212 37.043C143.39 36.4421 143.605 35.8369 143.859 35.2275C144.113 34.6097 144.405 34.0003 144.735 33.3994H143.859L144.646 30.5176ZM146.005 40.1152C146.005 40.5892 146.098 40.9362 146.284 41.1562C146.479 41.3678 146.737 41.4736 147.059 41.4736C147.38 41.4736 147.715 41.3594 148.062 41.1309C148.417 40.9023 148.76 40.6061 149.09 40.2422C149.42 39.8783 149.733 39.4678 150.029 39.0107C150.326 38.5452 150.584 38.0798 150.804 37.6143C151.024 37.1403 151.197 36.6875 151.324 36.2559C151.46 35.8242 151.527 35.4518 151.527 35.1387C151.527 33.9792 150.706 33.3994 149.064 33.3994H148.252C147.913 33.9326 147.604 34.487 147.325 35.0625C147.054 35.6296 146.817 36.2008 146.614 36.7764C146.42 37.3519 146.267 37.9232 146.157 38.4902C146.056 39.0573 146.005 39.599 146.005 40.1152ZM170.71 44L171.154 42.8447C171.214 42.6331 171.277 42.4385 171.345 42.2607C171.421 42.083 171.48 41.9349 171.522 41.8164C171.015 42.5866 170.401 43.1917 169.682 43.6318C168.962 44.0635 168.179 44.2793 167.333 44.2793C166.876 44.2793 166.474 44.2116 166.127 44.0762C165.788 43.9492 165.496 43.7757 165.251 43.5557C165.014 43.3271 164.819 43.0648 164.667 42.7686C164.523 42.4639 164.422 42.138 164.362 41.791C164.108 42.1719 163.816 42.5189 163.486 42.832C163.165 43.1367 162.813 43.3991 162.433 43.6191C162.06 43.8307 161.667 43.9915 161.252 44.1016C160.837 44.2201 160.418 44.2793 159.995 44.2793C159.301 44.2793 158.734 44.1354 158.294 43.8477C157.862 43.5514 157.536 43.179 157.316 42.7305C157.096 42.2734 156.978 41.7699 156.961 41.2197C156.936 40.6611 156.995 40.1152 157.139 39.582L159.589 30.5176H162.991L160.478 39.7725C160.334 40.2972 160.308 40.7119 160.401 41.0166C160.494 41.3128 160.693 41.4609 160.998 41.4609C161.362 41.4609 161.756 41.334 162.179 41.0801C162.61 40.8262 163.034 40.4453 163.448 39.9375C163.871 39.4297 164.273 38.7907 164.654 38.0205C165.035 37.2419 165.365 36.332 165.645 35.291L166.927 30.5176H170.329L167.815 39.7725C167.672 40.2972 167.646 40.7119 167.739 41.0166C167.832 41.3128 168.031 41.4609 168.336 41.4609C168.7 41.4609 169.093 41.334 169.517 41.0801C169.948 40.8262 170.371 40.4411 170.786 39.9248C171.209 39.4085 171.611 38.7653 171.992 37.9951C172.373 37.2165 172.703 36.3109 172.982 35.2783L174.252 30.5176H177.654L174.036 44H170.71ZM184.396 30.5176L184.078 31.6729C184.019 31.8844 183.951 32.0791 183.875 32.2568C183.807 32.4346 183.752 32.5827 183.71 32.7012C183.947 32.3457 184.218 32.0156 184.522 31.7109C184.836 31.4062 185.178 31.1481 185.551 30.9365C185.932 30.7165 186.338 30.5472 186.77 30.4287C187.21 30.3018 187.671 30.2383 188.153 30.2383C188.687 30.2383 189.152 30.3271 189.55 30.5049C189.956 30.6826 190.29 30.9196 190.553 31.2158C190.815 31.5036 191.01 31.8421 191.137 32.2314C191.272 32.6208 191.34 33.0228 191.34 33.4375C191.34 33.6829 191.323 33.9326 191.289 34.1865C191.255 34.4404 191.204 34.6901 191.137 34.9355L188.687 44H185.284L187.798 34.7451C187.849 34.5505 187.887 34.377 187.912 34.2246C187.946 34.0638 187.963 33.9199 187.963 33.793C187.963 33.556 187.887 33.374 187.734 33.2471C187.59 33.1201 187.396 33.0566 187.15 33.0566C186.71 33.0566 186.249 33.2217 185.767 33.5518C185.293 33.8734 184.831 34.3177 184.383 34.8848C183.934 35.4434 183.524 36.0993 183.151 36.8525C182.779 37.5973 182.479 38.3929 182.25 39.2393L179.584 49.167H176.182L181.196 30.5176H184.396ZM214.179 44L214.623 42.8447C214.682 42.6331 214.746 42.4385 214.813 42.2607C214.89 42.083 214.949 41.9349 214.991 41.8164C214.483 42.5866 213.87 43.1917 213.15 43.6318C212.431 44.0635 211.648 44.2793 210.802 44.2793C210.345 44.2793 209.943 44.2116 209.596 44.0762C209.257 43.9492 208.965 43.7757 208.72 43.5557C208.483 43.3271 208.288 43.0648 208.136 42.7686C207.992 42.4639 207.89 42.138 207.831 41.791C207.577 42.1719 207.285 42.5189 206.955 42.832C206.633 43.1367 206.282 43.3991 205.901 43.6191C205.529 43.8307 205.135 43.9915 204.721 44.1016C204.306 44.2201 203.887 44.2793 203.464 44.2793C202.77 44.2793 202.203 44.1354 201.763 43.8477C201.331 43.5514 201.005 43.179 200.785 42.7305C200.565 42.2734 200.447 41.7699 200.43 41.2197C200.404 40.6611 200.464 40.1152 200.607 39.582L203.058 30.5176H206.46L203.946 39.7725C203.802 40.2972 203.777 40.7119 203.87 41.0166C203.963 41.3128 204.162 41.4609 204.467 41.4609C204.831 41.4609 205.224 41.334 205.647 41.0801C206.079 40.8262 206.502 40.4453 206.917 39.9375C207.34 39.4297 207.742 38.7907 208.123 38.0205C208.504 37.2419 208.834 36.332 209.113 35.291L210.396 30.5176H213.798L211.284 39.7725C211.14 40.2972 211.115 40.7119 211.208 41.0166C211.301 41.3128 211.5 41.4609 211.805 41.4609C212.169 41.4609 212.562 41.334 212.985 41.0801C213.417 40.8262 213.84 40.4411 214.255 39.9248C214.678 39.4085 215.08 38.7653 215.461 37.9951C215.842 37.2165 216.172 36.3109 216.451 35.2783L217.721 30.5176H221.123L217.505 44H214.179ZM231.241 30.2383C231.935 30.2383 232.532 30.3441 233.031 30.5557C233.539 30.7588 233.95 31.0465 234.263 31.4189C234.584 31.7913 234.821 32.2399 234.974 32.7646C235.126 33.2809 235.202 33.848 235.202 34.4658C235.202 35.0329 235.113 35.6253 234.936 36.2432C234.758 36.861 234.512 37.4704 234.199 38.0713C233.886 38.6637 233.522 39.2266 233.107 39.7598C232.693 40.2845 232.253 40.7373 231.787 41.1182H234.39L233.603 44H226.925L227.547 41.7148C228.173 41.2832 228.749 40.8008 229.273 40.2676C229.798 39.7259 230.251 39.1504 230.632 38.541C231.013 37.9232 231.309 37.2757 231.521 36.5986C231.741 35.9215 231.851 35.2275 231.851 34.5166C231.851 34.0342 231.719 33.6702 231.457 33.4248C231.195 33.1794 230.882 33.0566 230.518 33.0566C230.018 33.0566 229.527 33.2217 229.045 33.5518C228.571 33.8734 228.122 34.3177 227.699 34.8848C227.285 35.4434 226.908 36.0993 226.569 36.8525C226.231 37.5973 225.947 38.3929 225.719 39.2393L224.449 44H221.047L224.665 30.5176H227.864L227.547 31.6729C227.488 31.8844 227.42 32.0791 227.344 32.2568C227.276 32.4346 227.221 32.5827 227.179 32.7012C227.687 31.931 228.279 31.3301 228.956 30.8984C229.633 30.4583 230.395 30.2383 231.241 30.2383ZM250.792 44L251.236 42.8447C251.296 42.6331 251.359 42.4385 251.427 42.2607C251.503 42.083 251.562 41.9349 251.604 41.8164C251.097 42.5866 250.483 43.1917 249.764 43.6318C249.044 44.0635 248.261 44.2793 247.415 44.2793C246.958 44.2793 246.556 44.2116 246.209 44.0762C245.87 43.9492 245.578 43.7757 245.333 43.5557C245.096 43.3271 244.901 43.0648 244.749 42.7686C244.605 42.4639 244.504 42.138 244.444 41.791C244.19 42.1719 243.898 42.5189 243.568 42.832C243.247 43.1367 242.896 43.3991 242.515 43.6191C242.142 43.8307 241.749 43.9915 241.334 44.1016C240.919 44.2201 240.5 44.2793 240.077 44.2793C239.383 44.2793 238.816 44.1354 238.376 43.8477C237.944 43.5514 237.618 43.179 237.398 42.7305C237.178 42.2734 237.06 41.7699 237.043 41.2197C237.018 40.6611 237.077 40.1152 237.221 39.582L239.671 30.5176H243.073L240.56 39.7725C240.416 40.2972 240.39 40.7119 240.483 41.0166C240.576 41.3128 240.775 41.4609 241.08 41.4609C241.444 41.4609 241.838 41.334 242.261 41.0801C242.692 40.8262 243.116 40.4453 243.53 39.9375C243.953 39.4297 244.355 38.7907 244.736 38.0205C245.117 37.2419 245.447 36.332 245.727 35.291L247.009 30.5176H250.411L247.897 39.7725C247.754 40.2972 247.728 40.7119 247.821 41.0166C247.914 41.3128 248.113 41.4609 248.418 41.4609C248.782 41.4609 249.175 41.334 249.599 41.0801C250.03 40.8262 250.453 40.4411 250.868 39.9248C251.291 39.4085 251.693 38.7653 252.074 37.9951C252.455 37.2165 252.785 36.3109 253.064 35.2783L254.334 30.5176H257.736L254.118 44H250.792ZM268.02 33.0566C267.656 33.0566 267.275 33.1201 266.877 33.2471C266.479 33.374 266.09 33.5729 265.709 33.8438C265.328 34.1146 264.973 34.4658 264.643 34.8975C264.312 35.3291 264.042 35.8496 263.83 36.459C264.202 36.5436 264.6 36.5986 265.023 36.624C265.455 36.6494 265.916 36.6621 266.407 36.6621C266.949 36.6621 267.419 36.6071 267.816 36.4971C268.214 36.3786 268.54 36.2135 268.794 36.002C269.048 35.7904 269.234 35.5365 269.353 35.2402C269.479 34.9355 269.543 34.6012 269.543 34.2373C269.543 34.0426 269.501 33.8734 269.416 33.7295C269.331 33.5771 269.217 33.4544 269.073 33.3613C268.938 33.2598 268.777 33.1836 268.591 33.1328C268.405 33.082 268.214 33.0566 268.02 33.0566ZM265.303 30.5176L264.973 31.6729C264.922 31.859 264.858 32.0452 264.782 32.2314C264.715 32.4092 264.655 32.5742 264.604 32.7266C265.112 31.8548 265.743 31.2243 266.496 30.835C267.258 30.4372 268.108 30.2383 269.048 30.2383C269.581 30.2383 270.08 30.3187 270.546 30.4795C271.02 30.6318 271.43 30.8646 271.777 31.1777C272.124 31.4909 272.395 31.876 272.59 32.333C272.793 32.79 272.895 33.319 272.895 33.9199C272.895 34.7747 272.746 35.5365 272.45 36.2051C272.154 36.8737 271.714 37.4408 271.13 37.9062C270.546 38.3633 269.826 38.7145 268.972 38.96C268.117 39.1969 267.131 39.3154 266.014 39.3154C265.59 39.3154 265.125 39.29 264.617 39.2393C264.109 39.1885 263.635 39.1165 263.195 39.0234L262.637 41.1182H271.117L270.355 44H261.9L260.504 49.167H257.102L258.473 44H256.594L257.355 41.1182H259.247L262.078 30.5176H265.303ZM280.397 30.5176L280.08 31.6729C280.021 31.8844 279.953 32.0791 279.877 32.2568C279.809 32.4346 279.754 32.5827 279.712 32.7012C279.966 32.3203 280.254 31.9775 280.575 31.6729C280.897 31.3682 281.244 31.11 281.616 30.8984C281.989 30.6868 282.378 30.526 282.784 30.416C283.19 30.2975 283.605 30.2383 284.028 30.2383C284.562 30.2383 285.035 30.3271 285.45 30.5049C285.865 30.6826 286.212 30.9196 286.491 31.2158C286.771 31.5036 286.982 31.8421 287.126 32.2314C287.27 32.6208 287.342 33.0228 287.342 33.4375C287.333 33.6829 287.312 33.9326 287.278 34.1865C287.253 34.4404 287.206 34.6901 287.139 34.9355L284.688 44H281.286L283.8 34.7451C283.851 34.5505 283.889 34.377 283.914 34.2246C283.948 34.0638 283.965 33.9199 283.965 33.793C283.965 33.5729 283.889 33.3952 283.736 33.2598C283.584 33.1243 283.385 33.0566 283.14 33.0566C282.742 33.0566 282.31 33.209 281.845 33.5137C281.379 33.8099 280.918 34.2288 280.461 34.7705C280.012 35.3122 279.593 35.9639 279.204 36.7256C278.815 37.4873 278.497 38.3252 278.252 39.2393L276.982 44H273.58L277.198 30.5176H280.397ZM296.749 44H288.142L291.734 30.5176H295.162L292.306 41.1182H297.523L296.749 44ZM306.689 44L307.007 42.8447C307.066 42.6331 307.13 42.4385 307.197 42.2607C307.273 42.083 307.333 41.9349 307.375 41.8164C307.121 42.1973 306.833 42.54 306.512 42.8447C306.19 43.1494 305.843 43.4076 305.471 43.6191C305.098 43.8307 304.709 43.9915 304.303 44.1016C303.896 44.2201 303.482 44.2793 303.059 44.2793C302.508 44.2793 302.026 44.1989 301.611 44.0381C301.197 43.8857 300.85 43.6742 300.57 43.4033C300.299 43.1325 300.092 42.8151 299.948 42.4512C299.813 42.0788 299.745 41.681 299.745 41.2578C299.745 40.987 299.762 40.7077 299.796 40.4199C299.821 40.1322 299.872 39.8529 299.948 39.582L302.398 30.5176H305.801L303.287 39.7725C303.236 39.9671 303.194 40.1449 303.16 40.3057C303.135 40.458 303.122 40.5977 303.122 40.7246C303.122 40.9447 303.198 41.1224 303.351 41.2578C303.503 41.3932 303.702 41.4609 303.947 41.4609C304.345 41.4609 304.777 41.3128 305.242 41.0166C305.708 40.7119 306.165 40.2887 306.613 39.7471C307.07 39.2054 307.493 38.5537 307.883 37.792C308.272 37.0303 308.59 36.1924 308.835 35.2783L311.488 25.3887H317.658L316.884 28.2832H314.104L309.889 44H306.689ZM39.5498 73H37.1943L40.0771 62.2158H38.3457L38.917 60.1152H43.0039L39.5498 73ZM48.8135 73.1934C48.1104 73.1934 47.5215 73.0879 47.0469 72.877C46.5723 72.666 46.1914 72.3818 45.9043 72.0244C45.6172 71.6611 45.4121 71.2393 45.2891 70.7588C45.166 70.2725 45.1045 69.7539 45.1045 69.2031C45.1045 68.6816 45.1514 68.0928 45.2451 67.4365C45.3447 66.7744 45.4941 66.1006 45.6934 65.415C45.8984 64.7236 46.1592 64.0498 46.4756 63.3936C46.7979 62.7373 47.1816 62.1514 47.627 61.6357C48.0723 61.1201 48.585 60.707 49.165 60.3965C49.751 60.0801 50.4072 59.9219 51.1338 59.9219C51.8369 59.9219 52.4229 60.0244 52.8916 60.2295C53.3604 60.4346 53.7354 60.7158 54.0166 61.0732C54.2979 61.4248 54.4971 61.8379 54.6143 62.3125C54.7314 62.7812 54.79 63.2822 54.79 63.8154C54.79 64.1904 54.7637 64.6123 54.7109 65.0811C54.6641 65.5498 54.585 66.0391 54.4736 66.5488C54.3682 67.0586 54.2305 67.5771 54.0605 68.1045C53.8906 68.6318 53.6885 69.1416 53.4541 69.6338C53.2197 70.126 52.9473 70.5889 52.6367 71.0225C52.332 71.4502 51.9863 71.8252 51.5996 72.1475C51.2188 72.4697 50.7969 72.7246 50.334 72.9121C49.8711 73.0996 49.3643 73.1934 48.8135 73.1934ZM51.0371 61.9785C50.75 61.9785 50.4775 62.0576 50.2197 62.2158C49.9619 62.3682 49.7217 62.5762 49.499 62.8398C49.2764 63.1035 49.0713 63.4111 48.8838 63.7627C48.6963 64.1143 48.5264 64.4893 48.374 64.8877C48.2217 65.2803 48.0869 65.6875 47.9697 66.1094C47.8584 66.5254 47.7617 66.9297 47.6797 67.3223C47.6035 67.7148 47.5449 68.0869 47.5039 68.4385C47.4688 68.7842 47.4512 69.0859 47.4512 69.3438C47.4512 69.5957 47.4746 69.833 47.5215 70.0557C47.5684 70.2725 47.6445 70.4629 47.75 70.627C47.8613 70.7852 48.0078 70.9111 48.1895 71.0049C48.377 71.0928 48.6113 71.1367 48.8926 71.1367C49.2734 71.1367 49.625 71.002 49.9473 70.7324C50.2695 70.4629 50.5596 70.1143 50.8174 69.6865C51.0811 69.2529 51.3096 68.7666 51.5029 68.2275C51.7021 67.6826 51.8662 67.1377 51.9951 66.5928C52.1299 66.0479 52.2295 65.5293 52.2939 65.0371C52.3643 64.5391 52.3994 64.1201 52.3994 63.7803C52.3994 63.5283 52.376 63.2939 52.3291 63.0771C52.2881 62.8545 52.2148 62.6611 52.1094 62.4971C52.0098 62.333 51.8721 62.207 51.6963 62.1191C51.5205 62.0254 51.3008 61.9785 51.0371 61.9785ZM54.9658 73L55.6074 70.6006H58.1299L57.4883 73H54.9658ZM64.5986 73.1934C63.8955 73.1934 63.3066 73.0879 62.832 72.877C62.3574 72.666 61.9766 72.3818 61.6895 72.0244C61.4023 71.6611 61.1973 71.2393 61.0742 70.7588C60.9512 70.2725 60.8896 69.7539 60.8896 69.2031C60.8896 68.6816 60.9365 68.0928 61.0303 67.4365C61.1299 66.7744 61.2793 66.1006 61.4785 65.415C61.6836 64.7236 61.9443 64.0498 62.2607 63.3936C62.583 62.7373 62.9668 62.1514 63.4121 61.6357C63.8574 61.1201 64.3701 60.707 64.9502 60.3965C65.5361 60.0801 66.1924 59.9219 66.9189 59.9219C67.6221 59.9219 68.208 60.0244 68.6768 60.2295C69.1455 60.4346 69.5205 60.7158 69.8018 61.0732C70.083 61.4248 70.2822 61.8379 70.3994 62.3125C70.5166 62.7812 70.5752 63.2822 70.5752 63.8154C70.5752 64.1904 70.5488 64.6123 70.4961 65.0811C70.4492 65.5498 70.3701 66.0391 70.2588 66.5488C70.1533 67.0586 70.0156 67.5771 69.8457 68.1045C69.6758 68.6318 69.4736 69.1416 69.2393 69.6338C69.0049 70.126 68.7324 70.5889 68.4219 71.0225C68.1172 71.4502 67.7715 71.8252 67.3848 72.1475C67.0039 72.4697 66.582 72.7246 66.1191 72.9121C65.6562 73.0996 65.1494 73.1934 64.5986 73.1934ZM66.8223 61.9785C66.5352 61.9785 66.2627 62.0576 66.0049 62.2158C65.7471 62.3682 65.5068 62.5762 65.2842 62.8398C65.0615 63.1035 64.8564 63.4111 64.6689 63.7627C64.4814 64.1143 64.3115 64.4893 64.1592 64.8877C64.0068 65.2803 63.8721 65.6875 63.7549 66.1094C63.6436 66.5254 63.5469 66.9297 63.4648 67.3223C63.3887 67.7148 63.3301 68.0869 63.2891 68.4385C63.2539 68.7842 63.2363 69.0859 63.2363 69.3438C63.2363 69.5957 63.2598 69.833 63.3066 70.0557C63.3535 70.2725 63.4297 70.4629 63.5352 70.627C63.6465 70.7852 63.793 70.9111 63.9746 71.0049C64.1621 71.0928 64.3965 71.1367 64.6777 71.1367C65.0586 71.1367 65.4102 71.002 65.7324 70.7324C66.0547 70.4629 66.3447 70.1143 66.6025 69.6865C66.8662 69.2529 67.0947 68.7666 67.2881 68.2275C67.4873 67.6826 67.6514 67.1377 67.7803 66.5928C67.915 66.0479 68.0146 65.5293 68.0791 65.0371C68.1494 64.5391 68.1846 64.1201 68.1846 63.7803C68.1846 63.5283 68.1611 63.2939 68.1143 63.0771C68.0732 62.8545 68 62.6611 67.8945 62.4971C67.7949 62.333 67.6572 62.207 67.4814 62.1191C67.3057 62.0254 67.0859 61.9785 66.8223 61.9785ZM75.4092 73.1934C74.7061 73.1934 74.1172 73.0879 73.6426 72.877C73.168 72.666 72.7871 72.3818 72.5 72.0244C72.2129 71.6611 72.0078 71.2393 71.8848 70.7588C71.7617 70.2725 71.7002 69.7539 71.7002 69.2031C71.7002 68.6816 71.7471 68.0928 71.8408 67.4365C71.9404 66.7744 72.0898 66.1006 72.2891 65.415C72.4941 64.7236 72.7549 64.0498 73.0713 63.3936C73.3936 62.7373 73.7773 62.1514 74.2227 61.6357C74.668 61.1201 75.1807 60.707 75.7607 60.3965C76.3467 60.0801 77.0029 59.9219 77.7295 59.9219C78.4326 59.9219 79.0186 60.0244 79.4873 60.2295C79.9561 60.4346 80.3311 60.7158 80.6123 61.0732C80.8936 61.4248 81.0928 61.8379 81.21 62.3125C81.3271 62.7812 81.3857 63.2822 81.3857 63.8154C81.3857 64.1904 81.3594 64.6123 81.3066 65.0811C81.2598 65.5498 81.1807 66.0391 81.0693 66.5488C80.9639 67.0586 80.8262 67.5771 80.6562 68.1045C80.4863 68.6318 80.2842 69.1416 80.0498 69.6338C79.8154 70.126 79.543 70.5889 79.2324 71.0225C78.9277 71.4502 78.582 71.8252 78.1953 72.1475C77.8145 72.4697 77.3926 72.7246 76.9297 72.9121C76.4668 73.0996 75.96 73.1934 75.4092 73.1934ZM77.6328 61.9785C77.3457 61.9785 77.0732 62.0576 76.8154 62.2158C76.5576 62.3682 76.3174 62.5762 76.0947 62.8398C75.8721 63.1035 75.667 63.4111 75.4795 63.7627C75.292 64.1143 75.1221 64.4893 74.9697 64.8877C74.8174 65.2803 74.6826 65.6875 74.5654 66.1094C74.4541 66.5254 74.3574 66.9297 74.2754 67.3223C74.1992 67.7148 74.1406 68.0869 74.0996 68.4385C74.0645 68.7842 74.0469 69.0859 74.0469 69.3438C74.0469 69.5957 74.0703 69.833 74.1172 70.0557C74.1641 70.2725 74.2402 70.4629 74.3457 70.627C74.457 70.7852 74.6035 70.9111 74.7852 71.0049C74.9727 71.0928 75.207 71.1367 75.4883 71.1367C75.8691 71.1367 76.2207 71.002 76.543 70.7324C76.8652 70.4629 77.1553 70.1143 77.4131 69.6865C77.6768 69.2529 77.9053 68.7666 78.0986 68.2275C78.2979 67.6826 78.4619 67.1377 78.5908 66.5928C78.7256 66.0479 78.8252 65.5293 78.8896 65.0371C78.96 64.5391 78.9951 64.1201 78.9951 63.7803C78.9951 63.5283 78.9717 63.2939 78.9248 63.0771C78.8838 62.8545 78.8105 62.6611 78.7051 62.4971C78.6055 62.333 78.4678 62.207 78.292 62.1191C78.1162 62.0254 77.8965 61.9785 77.6328 61.9785ZM86.2197 73.1934C85.5166 73.1934 84.9277 73.0879 84.4531 72.877C83.9785 72.666 83.5977 72.3818 83.3105 72.0244C83.0234 71.6611 82.8184 71.2393 82.6953 70.7588C82.5723 70.2725 82.5107 69.7539 82.5107 69.2031C82.5107 68.6816 82.5576 68.0928 82.6514 67.4365C82.751 66.7744 82.9004 66.1006 83.0996 65.415C83.3047 64.7236 83.5654 64.0498 83.8818 63.3936C84.2041 62.7373 84.5879 62.1514 85.0332 61.6357C85.4785 61.1201 85.9912 60.707 86.5713 60.3965C87.1572 60.0801 87.8135 59.9219 88.54 59.9219C89.2432 59.9219 89.8291 60.0244 90.2979 60.2295C90.7666 60.4346 91.1416 60.7158 91.4229 61.0732C91.7041 61.4248 91.9033 61.8379 92.0205 62.3125C92.1377 62.7812 92.1963 63.2822 92.1963 63.8154C92.1963 64.1904 92.1699 64.6123 92.1172 65.0811C92.0703 65.5498 91.9912 66.0391 91.8799 66.5488C91.7744 67.0586 91.6367 67.5771 91.4668 68.1045C91.2969 68.6318 91.0947 69.1416 90.8604 69.6338C90.626 70.126 90.3535 70.5889 90.043 71.0225C89.7383 71.4502 89.3926 71.8252 89.0059 72.1475C88.625 72.4697 88.2031 72.7246 87.7402 72.9121C87.2773 73.0996 86.7705 73.1934 86.2197 73.1934ZM88.4434 61.9785C88.1562 61.9785 87.8838 62.0576 87.626 62.2158C87.3682 62.3682 87.1279 62.5762 86.9053 62.8398C86.6826 63.1035 86.4775 63.4111 86.29 63.7627C86.1025 64.1143 85.9326 64.4893 85.7803 64.8877C85.6279 65.2803 85.4932 65.6875 85.376 66.1094C85.2646 66.5254 85.168 66.9297 85.0859 67.3223C85.0098 67.7148 84.9512 68.0869 84.9102 68.4385C84.875 68.7842 84.8574 69.0859 84.8574 69.3438C84.8574 69.5957 84.8809 69.833 84.9277 70.0557C84.9746 70.2725 85.0508 70.4629 85.1562 70.627C85.2676 70.7852 85.4141 70.9111 85.5957 71.0049C85.7832 71.0928 86.0176 71.1367 86.2988 71.1367C86.6797 71.1367 87.0312 71.002 87.3535 70.7324C87.6758 70.4629 87.9658 70.1143 88.2236 69.6865C88.4873 69.2529 88.7158 68.7666 88.9092 68.2275C89.1084 67.6826 89.2725 67.1377 89.4014 66.5928C89.5361 66.0479 89.6357 65.5293 89.7002 65.0371C89.7705 64.5391 89.8057 64.1201 89.8057 63.7803C89.8057 63.5283 89.7822 63.2939 89.7354 63.0771C89.6943 62.8545 89.6211 62.6611 89.5156 62.4971C89.416 62.333 89.2783 62.207 89.1025 62.1191C88.9268 62.0254 88.707 61.9785 88.4434 61.9785ZM102.233 63.666L102.014 64.4658C101.973 64.6123 101.926 64.7471 101.873 64.8701C101.826 64.9932 101.788 65.0957 101.759 65.1777C101.935 64.9141 102.134 64.6768 102.356 64.4658C102.579 64.2549 102.819 64.0762 103.077 63.9297C103.335 63.7832 103.604 63.6719 103.886 63.5957C104.167 63.5137 104.454 63.4727 104.747 63.4727C105.116 63.4727 105.444 63.5342 105.731 63.6572C106.019 63.7803 106.259 63.9443 106.452 64.1494C106.646 64.3486 106.792 64.583 106.892 64.8525C106.991 65.1221 107.041 65.4004 107.041 65.6875C107.041 65.8574 107.029 66.0303 107.006 66.2061C106.982 66.3818 106.947 66.5547 106.9 66.7246L105.74 71.0049H107.683L107.146 73H105.204L104.237 76.5771H101.882L104.589 66.5928C104.624 66.458 104.65 66.3379 104.668 66.2324C104.691 66.1211 104.703 66.0215 104.703 65.9336C104.703 65.7812 104.65 65.6582 104.545 65.5645C104.439 65.4707 104.302 65.4238 104.132 65.4238C103.856 65.4238 103.558 65.5293 103.235 65.7402C102.913 65.9453 102.594 66.2354 102.277 66.6104C101.967 66.9854 101.677 67.4365 101.407 67.9639C101.138 68.4912 100.918 69.0713 100.748 69.7041L99.8691 73H97.5137L100.019 63.666H102.233ZM113.009 63.666L112.789 64.4658C112.748 64.6123 112.701 64.7471 112.648 64.8701C112.602 64.9932 112.563 65.0957 112.534 65.1777C112.698 64.9316 112.886 64.7031 113.097 64.4922C113.313 64.2812 113.551 64.1025 113.809 63.9561C114.072 63.8037 114.354 63.6865 114.652 63.6045C114.957 63.5166 115.276 63.4727 115.61 63.4727C115.979 63.4727 116.302 63.5342 116.577 63.6572C116.858 63.7803 117.09 63.9443 117.271 64.1494C117.453 64.3486 117.588 64.583 117.676 64.8525C117.77 65.1221 117.816 65.4004 117.816 65.6875C117.816 65.8574 117.805 66.0303 117.781 66.2061C117.758 66.3818 117.723 66.5547 117.676 66.7246L115.979 73H113.624L115.364 66.5928C115.399 66.458 115.426 66.3379 115.443 66.2324C115.467 66.1211 115.479 66.0215 115.479 65.9336C115.479 65.7695 115.426 65.6436 115.32 65.5557C115.221 65.4678 115.086 65.4238 114.916 65.4238C114.611 65.4238 114.292 65.5381 113.958 65.7666C113.63 65.9893 113.311 66.2969 113 66.6895C112.689 67.0762 112.405 67.5303 112.147 68.0518C111.89 68.5674 111.682 69.1182 111.523 69.7041L109.678 76.5771H107.322L110.794 63.666H113.009ZM128.478 73L128.785 72.2002C128.826 72.0537 128.87 71.9189 128.917 71.7959C128.97 71.6729 129.011 71.5703 129.04 71.4883C128.688 72.0215 128.264 72.4404 127.766 72.7451C127.268 73.0439 126.726 73.1934 126.14 73.1934C125.823 73.1934 125.545 73.1465 125.305 73.0527C125.07 72.9648 124.868 72.8447 124.698 72.6924C124.534 72.5342 124.399 72.3525 124.294 72.1475C124.194 71.9365 124.124 71.7109 124.083 71.4707C123.907 71.7344 123.705 71.9746 123.477 72.1914C123.254 72.4023 123.011 72.584 122.747 72.7363C122.489 72.8828 122.217 72.9941 121.93 73.0703C121.643 73.1523 121.353 73.1934 121.06 73.1934C120.579 73.1934 120.187 73.0938 119.882 72.8945C119.583 72.6895 119.357 72.4316 119.205 72.1211C119.053 71.8047 118.971 71.4561 118.959 71.0752C118.941 70.6885 118.982 70.3105 119.082 69.9414L120.778 63.666H123.134L121.394 70.0732C121.294 70.4365 121.276 70.7236 121.341 70.9346C121.405 71.1396 121.543 71.2422 121.754 71.2422C122.006 71.2422 122.278 71.1543 122.571 70.9785C122.87 70.8027 123.163 70.5391 123.45 70.1875C123.743 69.8359 124.021 69.3936 124.285 68.8604C124.549 68.3213 124.777 67.6914 124.971 66.9707L125.858 63.666H128.214L126.474 70.0732C126.374 70.4365 126.356 70.7236 126.421 70.9346C126.485 71.1396 126.623 71.2422 126.834 71.2422C127.086 71.2422 127.358 71.1543 127.651 70.9785C127.95 70.8027 128.243 70.5361 128.53 70.1787C128.823 69.8213 129.102 69.376 129.365 68.8428C129.629 68.3037 129.857 67.6768 130.051 66.9619L130.93 63.666H133.285L130.78 73H128.478ZM138.629 73L138.849 72.2002C138.89 72.0537 138.934 71.9189 138.98 71.7959C139.033 71.6729 139.074 71.5703 139.104 71.4883C138.928 71.752 138.729 71.9893 138.506 72.2002C138.283 72.4111 138.043 72.5898 137.785 72.7363C137.527 72.8828 137.258 72.9941 136.977 73.0703C136.695 73.1523 136.408 73.1934 136.115 73.1934C135.734 73.1934 135.4 73.1377 135.113 73.0264C134.826 72.9209 134.586 72.7744 134.393 72.5869C134.205 72.3994 134.062 72.1797 133.962 71.9277C133.868 71.6699 133.821 71.3945 133.821 71.1016C133.821 70.9141 133.833 70.7207 133.856 70.5215C133.874 70.3223 133.909 70.1289 133.962 69.9414L135.658 63.666H138.014L136.273 70.0732C136.238 70.208 136.209 70.3311 136.186 70.4424C136.168 70.5479 136.159 70.6445 136.159 70.7324C136.159 70.8848 136.212 71.0078 136.317 71.1016C136.423 71.1953 136.561 71.2422 136.73 71.2422C137.006 71.2422 137.305 71.1396 137.627 70.9346C137.949 70.7236 138.266 70.4307 138.576 70.0557C138.893 69.6807 139.186 69.2295 139.455 68.7021C139.725 68.1748 139.944 67.5947 140.114 66.9619L141.951 60.1152H146.223L145.687 62.1191H143.762L140.844 73H138.629ZM154.467 73L154.687 72.2002C154.728 72.0537 154.771 71.9189 154.818 71.7959C154.871 71.6729 154.912 71.5703 154.941 71.4883C154.766 71.752 154.566 71.9893 154.344 72.2002C154.121 72.4111 153.881 72.5898 153.623 72.7363C153.365 72.8828 153.096 72.9941 152.814 73.0703C152.533 73.1523 152.246 73.1934 151.953 73.1934C151.572 73.1934 151.238 73.1377 150.951 73.0264C150.664 72.9209 150.424 72.7744 150.23 72.5869C150.043 72.3994 149.899 72.1797 149.8 71.9277C149.706 71.6699 149.659 71.3945 149.659 71.1016C149.659 70.9141 149.671 70.7207 149.694 70.5215C149.712 70.3223 149.747 70.1289 149.8 69.9414L152.445 60.1152H154.81L152.111 70.0732C152.076 70.208 152.047 70.3311 152.023 70.4424C152.006 70.5479 151.997 70.6445 151.997 70.7324C151.997 70.8848 152.05 71.0078 152.155 71.1016C152.261 71.1953 152.398 71.2422 152.568 71.2422C152.844 71.2422 153.143 71.1396 153.465 70.9346C153.787 70.7236 154.104 70.4307 154.414 70.0557C154.73 69.6807 155.023 69.2295 155.293 68.7021C155.562 68.1748 155.782 67.5947 155.952 66.9619L156.831 63.666H159.187L157.218 71.0049H161.19L160.646 73H154.467ZM177.327 73L177.635 72.2002C177.676 72.0537 177.72 71.9189 177.767 71.7959C177.819 71.6729 177.86 71.5703 177.89 71.4883C177.538 72.0215 177.113 72.4404 176.615 72.7451C176.117 73.0439 175.575 73.1934 174.989 73.1934C174.673 73.1934 174.395 73.1465 174.154 73.0527C173.92 72.9648 173.718 72.8447 173.548 72.6924C173.384 72.5342 173.249 72.3525 173.144 72.1475C173.044 71.9365 172.974 71.7109 172.933 71.4707C172.757 71.7344 172.555 71.9746 172.326 72.1914C172.104 72.4023 171.86 72.584 171.597 72.7363C171.339 72.8828 171.066 72.9941 170.779 73.0703C170.492 73.1523 170.202 73.1934 169.909 73.1934C169.429 73.1934 169.036 73.0938 168.731 72.8945C168.433 72.6895 168.207 72.4316 168.055 72.1211C167.902 71.8047 167.82 71.4561 167.809 71.0752C167.791 70.6885 167.832 70.3105 167.932 69.9414L169.628 63.666H171.983L170.243 70.0732C170.144 70.4365 170.126 70.7236 170.19 70.9346C170.255 71.1396 170.393 71.2422 170.604 71.2422C170.855 71.2422 171.128 71.1543 171.421 70.9785C171.72 70.8027 172.013 70.5391 172.3 70.1875C172.593 69.8359 172.871 69.3936 173.135 68.8604C173.398 68.3213 173.627 67.6914 173.82 66.9707L174.708 63.666H177.063L175.323 70.0732C175.224 70.4365 175.206 70.7236 175.271 70.9346C175.335 71.1396 175.473 71.2422 175.684 71.2422C175.936 71.2422 176.208 71.1543 176.501 70.9785C176.8 70.8027 177.093 70.5361 177.38 70.1787C177.673 69.8213 177.951 69.376 178.215 68.8428C178.479 68.3037 178.707 67.6768 178.9 66.9619L179.779 63.666H182.135L179.63 73H177.327ZM187.505 72.3848C187.546 72.2383 187.59 72.1035 187.637 71.9805C187.689 71.8574 187.73 71.7549 187.76 71.6729C187.619 71.8838 187.443 72.083 187.232 72.2705C187.027 72.4521 186.799 72.6133 186.547 72.7539C186.295 72.8887 186.025 72.9941 185.738 73.0703C185.457 73.1523 185.17 73.1934 184.877 73.1934C184.49 73.1934 184.156 73.1318 183.875 73.0088C183.6 72.8857 183.371 72.7246 183.189 72.5254C183.014 72.3203 182.882 72.0859 182.794 71.8223C182.712 71.5527 182.671 71.2715 182.671 70.9785C182.671 70.8086 182.683 70.6357 182.706 70.46C182.729 70.2842 182.765 70.1113 182.812 69.9414L184.508 63.666H186.863L185.123 70.0732C185.088 70.208 185.059 70.3311 185.035 70.4424C185.018 70.5479 185.009 70.6445 185.009 70.7324C185.009 71.0723 185.196 71.2422 185.571 71.2422C185.823 71.2422 186.113 71.1309 186.441 70.9082C186.77 70.6797 187.092 70.3721 187.408 69.9854C187.73 69.5928 188.029 69.1387 188.305 68.623C188.586 68.1016 188.806 67.5479 188.964 66.9619L190.783 60.1152H193.139L189.28 74.5732H191.205L190.66 76.5771H186.38L187.505 72.3848ZM197.533 73L197.753 72.2002C197.794 72.0537 197.838 71.9189 197.885 71.7959C197.938 71.6729 197.979 71.5703 198.008 71.4883C197.832 71.752 197.63 71.9893 197.401 72.2002C197.179 72.4111 196.936 72.5898 196.672 72.7363C196.408 72.8828 196.13 72.9941 195.837 73.0703C195.544 73.1523 195.242 73.1934 194.932 73.1934C194.574 73.1934 194.258 73.1377 193.982 73.0264C193.707 72.915 193.476 72.7656 193.288 72.5781C193.101 72.3848 192.957 72.165 192.857 71.9189C192.764 71.667 192.717 71.4004 192.717 71.1191C192.717 70.9316 192.729 70.7383 192.752 70.5391C192.775 70.334 192.813 70.1348 192.866 69.9414L195.521 60.1152H197.876L196.909 63.666H202.314L201.778 65.6611H196.373L195.178 70.0732C195.143 70.208 195.113 70.3311 195.09 70.4424C195.072 70.5479 195.063 70.6445 195.063 70.7324C195.063 70.8965 195.113 71.0225 195.213 71.1104C195.318 71.1982 195.456 71.2422 195.626 71.2422C195.925 71.2422 196.241 71.125 196.575 70.8906C196.909 70.6562 197.229 70.3516 197.533 69.9766C197.844 69.6016 198.122 69.1797 198.368 68.7109C198.62 68.2363 198.808 67.7617 198.931 67.2871H201.277L199.748 73H197.533ZM205.786 76.5771H201.251L204.688 63.666H207.052L204.134 74.5732H206.313L205.786 76.5771ZM217.581 72.3057C217.593 72.2588 217.616 72.1797 217.651 72.0684C217.687 71.957 217.736 71.8398 217.801 71.7168C217.631 71.9922 217.438 72.2236 217.221 72.4111C217.01 72.5986 216.79 72.751 216.562 72.8682C216.339 72.9795 216.116 73.0615 215.894 73.1143C215.677 73.167 215.478 73.1934 215.296 73.1934C214.464 73.1934 213.816 72.9268 213.354 72.3936C212.896 71.8604 212.668 71.0547 212.668 69.9766C212.668 69.5547 212.721 69.1006 212.826 68.6143C212.932 68.1221 213.093 67.6357 213.31 67.1553C213.526 66.6748 213.796 66.2119 214.118 65.7666C214.446 65.3213 214.833 64.9287 215.278 64.5889C215.724 64.249 216.225 63.9795 216.781 63.7803C217.344 63.5752 217.968 63.4727 218.653 63.4727C218.993 63.4727 219.33 63.4902 219.664 63.5254C220.004 63.5547 220.326 63.5957 220.631 63.6484C220.936 63.6953 221.214 63.751 221.466 63.8154C221.724 63.8799 221.94 63.9473 222.116 64.0176L220.253 71.0049H222.354L221.826 73H219.717L218.768 76.5771H216.421L217.581 72.3057ZM219.4 65.459C219.277 65.4297 219.146 65.4092 219.005 65.3975C218.864 65.3799 218.718 65.3711 218.565 65.3711C218.149 65.3711 217.771 65.4502 217.432 65.6084C217.092 65.7607 216.787 65.9629 216.518 66.2148C216.254 66.4668 216.025 66.7568 215.832 67.085C215.639 67.4072 215.478 67.7383 215.349 68.0781C215.226 68.418 215.132 68.749 215.067 69.0713C215.009 69.3936 214.979 69.6836 214.979 69.9414C214.979 70.3633 215.047 70.6855 215.182 70.9082C215.322 71.1309 215.533 71.2422 215.814 71.2422C216.072 71.2422 216.348 71.1396 216.641 70.9346C216.939 70.7295 217.232 70.4424 217.52 70.0732C217.807 69.6982 218.079 69.2471 218.337 68.7197C218.595 68.1924 218.812 67.6064 218.987 66.9619L219.4 65.459ZM228.365 73L228.585 72.2002C228.626 72.0537 228.67 71.9189 228.717 71.7959C228.77 71.6729 228.811 71.5703 228.84 71.4883C228.664 71.752 228.465 71.9893 228.242 72.2002C228.02 72.4111 227.779 72.5898 227.521 72.7363C227.264 72.8828 226.994 72.9941 226.713 73.0703C226.432 73.1523 226.145 73.1934 225.852 73.1934C225.471 73.1934 225.137 73.1377 224.85 73.0264C224.562 72.9209 224.322 72.7744 224.129 72.5869C223.941 72.3994 223.798 72.1797 223.698 71.9277C223.604 71.6699 223.558 71.3945 223.558 71.1016C223.558 70.9141 223.569 70.7207 223.593 70.5215C223.61 70.3223 223.646 70.1289 223.698 69.9414L225.808 62.1191H223.883L224.401 60.1152H228.708L226.01 70.0732C225.975 70.208 225.945 70.3311 225.922 70.4424C225.904 70.5479 225.896 70.6445 225.896 70.7324C225.896 70.8848 225.948 71.0078 226.054 71.1016C226.159 71.1953 226.297 71.2422 226.467 71.2422C226.742 71.2422 227.041 71.1396 227.363 70.9346C227.686 70.7236 228.002 70.4307 228.312 70.0557C228.629 69.6807 228.922 69.2295 229.191 68.7021C229.461 68.1748 229.681 67.5947 229.851 66.9619L230.729 63.666H233.085L230.58 73H228.365ZM237.743 63.666L237.523 64.4658C237.482 64.6123 237.436 64.7471 237.383 64.8701C237.336 64.9932 237.298 65.0957 237.269 65.1777C237.444 64.9141 237.644 64.6768 237.866 64.4658C238.089 64.2549 238.329 64.0762 238.587 63.9297C238.845 63.7832 239.114 63.6719 239.396 63.5957C239.677 63.5137 239.964 63.4727 240.257 63.4727C240.626 63.4727 240.954 63.5342 241.241 63.6572C241.528 63.7803 241.769 63.9443 241.962 64.1494C242.155 64.3486 242.302 64.583 242.401 64.8525C242.501 65.1221 242.551 65.4004 242.551 65.6875C242.545 65.8574 242.53 66.0303 242.507 66.2061C242.489 66.3818 242.457 66.5547 242.41 66.7246L240.714 73H238.358L240.099 66.5928C240.134 66.458 240.16 66.3379 240.178 66.2324C240.201 66.1211 240.213 66.0215 240.213 65.9336C240.213 65.7812 240.16 65.6582 240.055 65.5645C239.949 65.4707 239.812 65.4238 239.642 65.4238C239.366 65.4238 239.067 65.5293 238.745 65.7402C238.423 65.9453 238.104 66.2354 237.787 66.6104C237.477 66.9854 237.187 67.4365 236.917 67.9639C236.647 68.4912 236.428 69.0713 236.258 69.7041L235.379 73H233.023L235.528 63.666H237.743ZM249.063 73H243.104L245.592 63.666H247.965L245.987 71.0049H249.6L249.063 73ZM255.945 73L256.165 72.2002C256.206 72.0537 256.25 71.9189 256.297 71.7959C256.35 71.6729 256.391 71.5703 256.42 71.4883C256.244 71.752 256.045 71.9893 255.822 72.2002C255.6 72.4111 255.359 72.5898 255.102 72.7363C254.844 72.8828 254.574 72.9941 254.293 73.0703C254.012 73.1523 253.725 73.1934 253.432 73.1934C253.051 73.1934 252.717 73.1377 252.43 73.0264C252.143 72.9209 251.902 72.7744 251.709 72.5869C251.521 72.3994 251.378 72.1797 251.278 71.9277C251.185 71.6699 251.138 71.3945 251.138 71.1016C251.138 70.9141 251.149 70.7207 251.173 70.5215C251.19 70.3223 251.226 70.1289 251.278 69.9414L252.975 63.666H255.33L253.59 70.0732C253.555 70.208 253.525 70.3311 253.502 70.4424C253.484 70.5479 253.476 70.6445 253.476 70.7324C253.476 70.8848 253.528 71.0078 253.634 71.1016C253.739 71.1953 253.877 71.2422 254.047 71.2422C254.322 71.2422 254.621 71.1396 254.943 70.9346C255.266 70.7236 255.582 70.4307 255.893 70.0557C256.209 69.6807 256.502 69.2295 256.771 68.7021C257.041 68.1748 257.261 67.5947 257.431 66.9619L259.268 60.1152H263.539L263.003 62.1191H261.078L258.16 73H255.945ZM266 73L266.22 72.2002C266.261 72.0537 266.305 71.9189 266.352 71.7959C266.404 71.6729 266.445 71.5703 266.475 71.4883C266.299 71.752 266.1 71.9893 265.877 72.2002C265.654 72.4111 265.414 72.5898 265.156 72.7363C264.898 72.8828 264.629 72.9941 264.348 73.0703C264.066 73.1523 263.779 73.1934 263.486 73.1934C263.105 73.1934 262.771 73.1377 262.484 73.0264C262.197 72.9209 261.957 72.7744 261.764 72.5869C261.576 72.3994 261.433 72.1797 261.333 71.9277C261.239 71.6699 261.192 71.3945 261.192 71.1016C261.192 70.9141 261.204 70.7207 261.228 70.5215C261.245 70.3223 261.28 70.1289 261.333 69.9414L263.442 62.1191H261.518L262.036 60.1152H266.343L263.645 70.0732C263.609 70.208 263.58 70.3311 263.557 70.4424C263.539 70.5479 263.53 70.6445 263.53 70.7324C263.53 70.8848 263.583 71.0078 263.688 71.1016C263.794 71.1953 263.932 71.2422 264.102 71.2422C264.377 71.2422 264.676 71.1396 264.998 70.9346C265.32 70.7236 265.637 70.4307 265.947 70.0557C266.264 69.6807 266.557 69.2295 266.826 68.7021C267.096 68.1748 267.315 67.5947 267.485 66.9619L268.364 63.666H270.72L268.215 73H266ZM276.055 73L276.274 72.2002C276.315 72.0537 276.359 71.9189 276.406 71.7959C276.459 71.6729 276.5 71.5703 276.529 71.4883C276.354 71.752 276.151 71.9893 275.923 72.2002C275.7 72.4111 275.457 72.5898 275.193 72.7363C274.93 72.8828 274.651 72.9941 274.358 73.0703C274.065 73.1523 273.764 73.1934 273.453 73.1934C273.096 73.1934 272.779 73.1377 272.504 73.0264C272.229 72.915 271.997 72.7656 271.81 72.5781C271.622 72.3848 271.479 72.165 271.379 71.9189C271.285 71.667 271.238 71.4004 271.238 71.1191C271.238 70.9316 271.25 70.7383 271.273 70.5391C271.297 70.334 271.335 70.1348 271.388 69.9414L274.042 60.1152H276.397L275.431 63.666H280.836L280.3 65.6611H274.895L273.699 70.0732C273.664 70.208 273.635 70.3311 273.611 70.4424C273.594 70.5479 273.585 70.6445 273.585 70.7324C273.585 70.8965 273.635 71.0225 273.734 71.1104C273.84 71.1982 273.978 71.2422 274.147 71.2422C274.446 71.2422 274.763 71.125 275.097 70.8906C275.431 70.6562 275.75 70.3516 276.055 69.9766C276.365 69.6016 276.644 69.1797 276.89 68.7109C277.142 68.2363 277.329 67.7617 277.452 67.2871H279.799L278.27 73H276.055ZM285.433 63.666L285.213 64.4658C285.172 64.6123 285.125 64.7471 285.072 64.8701C285.025 64.9932 284.987 65.0957 284.958 65.1777C285.122 64.9316 285.31 64.7031 285.521 64.4922C285.737 64.2812 285.975 64.1025 286.232 63.9561C286.496 63.8037 286.777 63.6865 287.076 63.6045C287.381 63.5166 287.7 63.4727 288.034 63.4727C288.403 63.4727 288.726 63.5342 289.001 63.6572C289.282 63.7803 289.514 63.9443 289.695 64.1494C289.877 64.3486 290.012 64.583 290.1 64.8525C290.193 65.1221 290.24 65.4004 290.24 65.6875C290.24 65.8574 290.229 66.0303 290.205 66.2061C290.182 66.3818 290.146 66.5547 290.1 66.7246L288.403 73H286.048L287.788 66.5928C287.823 66.458 287.85 66.3379 287.867 66.2324C287.891 66.1211 287.902 66.0215 287.902 65.9336C287.902 65.7695 287.85 65.6436 287.744 65.5557C287.645 65.4678 287.51 65.4238 287.34 65.4238C287.035 65.4238 286.716 65.5381 286.382 65.7666C286.054 65.9893 285.734 66.2969 285.424 66.6895C285.113 67.0762 284.829 67.5303 284.571 68.0518C284.313 68.5674 284.105 69.1182 283.947 69.7041L282.102 76.5771H279.746L283.218 63.666H285.433ZM295.47 64.334C295.452 64.4043 295.423 64.5039 295.382 64.6328C295.347 64.7617 295.3 64.8877 295.241 65.0107C295.388 64.7822 295.563 64.5742 295.769 64.3867C295.974 64.1934 296.199 64.0293 296.445 63.8945C296.697 63.7598 296.964 63.6572 297.245 63.5869C297.526 63.5107 297.813 63.4727 298.106 63.4727C298.476 63.4727 298.798 63.5342 299.073 63.6572C299.354 63.7803 299.586 63.9443 299.768 64.1494C299.949 64.3486 300.084 64.583 300.172 64.8525C300.266 65.1221 300.312 65.4004 300.312 65.6875C300.312 65.8574 300.301 66.0303 300.277 66.2061C300.254 66.3818 300.219 66.5547 300.172 66.7246L298.476 73H296.12L297.86 66.5928C297.896 66.458 297.922 66.3379 297.939 66.2324C297.963 66.1211 297.975 66.0215 297.975 65.9336C297.975 65.7695 297.922 65.6436 297.816 65.5557C297.717 65.4678 297.582 65.4238 297.412 65.4238C297.16 65.4238 296.873 65.5205 296.551 65.7139C296.234 65.9072 295.918 66.1885 295.602 66.5576C295.285 66.9268 294.986 67.3779 294.705 67.9111C294.424 68.4385 294.195 69.0361 294.02 69.7041L292.183 76.5771H289.827L294.239 60.1152H296.595L295.47 64.334ZM310.728 63.666L310.508 64.4658C310.467 64.6123 310.42 64.7471 310.367 64.8701C310.32 64.9932 310.282 65.0957 310.253 65.1777C310.429 64.9141 310.628 64.6768 310.851 64.4658C311.073 64.2549 311.313 64.0762 311.571 63.9297C311.829 63.7832 312.099 63.6719 312.38 63.5957C312.661 63.5137 312.948 63.4727 313.241 63.4727C313.61 63.4727 313.938 63.5342 314.226 63.6572C314.513 63.7803 314.753 63.9443 314.946 64.1494C315.14 64.3486 315.286 64.583 315.386 64.8525C315.485 65.1221 315.535 65.4004 315.535 65.6875C315.535 65.8574 315.523 66.0303 315.5 66.2061C315.477 66.3818 315.441 66.5547 315.395 66.7246L314.234 71.0049H316.177L315.641 73H313.698L312.731 76.5771H310.376L313.083 66.5928C313.118 66.458 313.145 66.3379 313.162 66.2324C313.186 66.1211 313.197 66.0215 313.197 65.9336C313.197 65.7812 313.145 65.6582 313.039 65.5645C312.934 65.4707 312.796 65.4238 312.626 65.4238C312.351 65.4238 312.052 65.5293 311.729 65.7402C311.407 65.9453 311.088 66.2354 310.771 66.6104C310.461 66.9854 310.171 67.4365 309.901 67.9639C309.632 68.4912 309.412 69.0713 309.242 69.7041L308.363 73H306.008L308.513 63.666H310.728ZM322.18 73L322.399 72.2002C322.44 72.0537 322.484 71.9189 322.531 71.7959C322.584 71.6729 322.625 71.5703 322.654 71.4883C322.479 71.752 322.276 71.9893 322.048 72.2002C321.825 72.4111 321.582 72.5898 321.318 72.7363C321.055 72.8828 320.776 72.9941 320.483 73.0703C320.19 73.1523 319.889 73.1934 319.578 73.1934C319.221 73.1934 318.904 73.1377 318.629 73.0264C318.354 72.915 318.122 72.7656 317.935 72.5781C317.747 72.3848 317.604 72.165 317.504 71.9189C317.41 71.667 317.363 71.4004 317.363 71.1191C317.363 70.9316 317.375 70.7383 317.398 70.5391C317.422 70.334 317.46 70.1348 317.513 69.9414L320.167 60.1152H322.522L321.556 63.666H326.961L326.425 65.6611H321.02L319.824 70.0732C319.789 70.208 319.76 70.3311 319.736 70.4424C319.719 70.5479 319.71 70.6445 319.71 70.7324C319.71 70.8965 319.76 71.0225 319.859 71.1104C319.965 71.1982 320.103 71.2422 320.272 71.2422C320.571 71.2422 320.888 71.125 321.222 70.8906C321.556 70.6562 321.875 70.3516 322.18 69.9766C322.49 69.6016 322.769 69.1797 323.015 68.7109C323.267 68.2363 323.454 67.7617 323.577 67.2871H325.924L324.395 73H322.18ZM338.308 76.5771H335.952L337.007 72.6309C337.024 72.5723 337.048 72.4932 337.077 72.3936C337.112 72.2881 337.147 72.1797 337.183 72.0684C337.224 71.957 337.262 71.8516 337.297 71.752C337.332 71.6465 337.361 71.5645 337.385 71.5059C337.232 71.7812 337.048 72.0244 336.831 72.2354C336.62 72.4404 336.392 72.6162 336.146 72.7627C335.899 72.9033 335.645 73.0088 335.381 73.0791C335.123 73.1553 334.871 73.1934 334.625 73.1934C334.309 73.1934 334.03 73.1465 333.79 73.0527C333.556 72.9648 333.354 72.8447 333.184 72.6924C333.02 72.5342 332.885 72.3525 332.779 72.1475C332.68 71.9365 332.609 71.7109 332.568 71.4707C332.393 71.7344 332.19 71.9746 331.962 72.1914C331.739 72.4023 331.496 72.584 331.232 72.7363C330.975 72.8828 330.702 72.9941 330.415 73.0703C330.128 73.1523 329.838 73.1934 329.545 73.1934C329.064 73.1934 328.672 73.0938 328.367 72.8945C328.068 72.6895 327.843 72.4316 327.69 72.1211C327.538 71.8047 327.456 71.4561 327.444 71.0752C327.427 70.6885 327.468 70.3105 327.567 69.9414L329.264 63.666H331.619L329.879 70.0732C329.779 70.4365 329.762 70.7236 329.826 70.9346C329.891 71.1396 330.028 71.2422 330.239 71.2422C330.491 71.2422 330.764 71.1543 331.057 70.9785C331.355 70.8027 331.648 70.5391 331.936 70.1875C332.229 69.8359 332.507 69.3936 332.771 68.8604C333.034 68.3213 333.263 67.6914 333.456 66.9707L334.344 63.666H336.699L334.959 70.0732C334.859 70.4365 334.842 70.7236 334.906 70.9346C334.971 71.1396 335.108 71.2422 335.319 71.2422C335.56 71.2422 335.823 71.1631 336.11 71.0049C336.403 70.8408 336.69 70.5977 336.972 70.2754C337.259 69.9473 337.531 69.5371 337.789 69.0449C338.047 68.5527 338.264 67.9756 338.439 67.3135L339.415 63.666H341.771L338.308 76.5771ZM348.881 65.4238C348.629 65.4238 348.365 65.4678 348.09 65.5557C347.814 65.6436 347.545 65.7812 347.281 65.9688C347.018 66.1562 346.771 66.3994 346.543 66.6982C346.314 66.9971 346.127 67.3574 345.98 67.7793C346.238 67.8379 346.514 67.876 346.807 67.8936C347.105 67.9111 347.425 67.9199 347.765 67.9199C348.14 67.9199 348.465 67.8818 348.74 67.8057C349.016 67.7236 349.241 67.6094 349.417 67.4629C349.593 67.3164 349.722 67.1406 349.804 66.9355C349.892 66.7246 349.936 66.4932 349.936 66.2412C349.936 66.1064 349.906 65.9893 349.848 65.8896C349.789 65.7842 349.71 65.6992 349.61 65.6348C349.517 65.5645 349.405 65.5117 349.276 65.4766C349.147 65.4414 349.016 65.4238 348.881 65.4238ZM347 63.666L346.771 64.4658C346.736 64.5947 346.692 64.7236 346.64 64.8525C346.593 64.9756 346.552 65.0898 346.517 65.1953C346.868 64.5918 347.305 64.1553 347.826 63.8857C348.354 63.6104 348.942 63.4727 349.593 63.4727C349.962 63.4727 350.308 63.5283 350.63 63.6396C350.958 63.7451 351.242 63.9062 351.482 64.123C351.723 64.3398 351.91 64.6064 352.045 64.9229C352.186 65.2393 352.256 65.6055 352.256 66.0215C352.256 66.6133 352.153 67.1406 351.948 67.6035C351.743 68.0664 351.438 68.459 351.034 68.7812C350.63 69.0977 350.132 69.3408 349.54 69.5107C348.948 69.6748 348.266 69.7568 347.492 69.7568C347.199 69.7568 346.877 69.7393 346.525 69.7041C346.174 69.6689 345.846 69.6191 345.541 69.5547L345.154 71.0049H351.025L350.498 73H344.645L343.678 76.5771H341.322L342.271 73H340.971L341.498 71.0049H342.808L344.768 63.666H347ZM357.45 63.666L357.23 64.4658C357.189 64.6123 357.143 64.7471 357.09 64.8701C357.043 64.9932 357.005 65.0957 356.976 65.1777C357.151 64.9141 357.351 64.6768 357.573 64.4658C357.796 64.2549 358.036 64.0762 358.294 63.9297C358.552 63.7832 358.821 63.6719 359.103 63.5957C359.384 63.5137 359.671 63.4727 359.964 63.4727C360.333 63.4727 360.661 63.5342 360.948 63.6572C361.235 63.7803 361.476 63.9443 361.669 64.1494C361.862 64.3486 362.009 64.583 362.108 64.8525C362.208 65.1221 362.258 65.4004 362.258 65.6875C362.252 65.8574 362.237 66.0303 362.214 66.2061C362.196 66.3818 362.164 66.5547 362.117 66.7246L360.421 73H358.065L359.806 66.5928C359.841 66.458 359.867 66.3379 359.885 66.2324C359.908 66.1211 359.92 66.0215 359.92 65.9336C359.92 65.7812 359.867 65.6582 359.762 65.5645C359.656 65.4707 359.519 65.4238 359.349 65.4238C359.073 65.4238 358.774 65.5293 358.452 65.7402C358.13 65.9453 357.811 66.2354 357.494 66.6104C357.184 66.9854 356.894 67.4365 356.624 67.9639C356.354 68.4912 356.135 69.0713 355.965 69.7041L355.086 73H352.73L355.235 63.666H357.45ZM368.771 73H362.812L365.299 63.666H367.672L365.694 71.0049H369.307L368.771 73ZM375.652 73L375.872 72.2002C375.913 72.0537 375.957 71.9189 376.004 71.7959C376.057 71.6729 376.098 71.5703 376.127 71.4883C375.951 71.752 375.752 71.9893 375.529 72.2002C375.307 72.4111 375.066 72.5898 374.809 72.7363C374.551 72.8828 374.281 72.9941 374 73.0703C373.719 73.1523 373.432 73.1934 373.139 73.1934C372.758 73.1934 372.424 73.1377 372.137 73.0264C371.85 72.9209 371.609 72.7744 371.416 72.5869C371.229 72.3994 371.085 72.1797 370.985 71.9277C370.892 71.6699 370.845 71.3945 370.845 71.1016C370.845 70.9141 370.856 70.7207 370.88 70.5215C370.897 70.3223 370.933 70.1289 370.985 69.9414L372.682 63.666H375.037L373.297 70.0732C373.262 70.208 373.232 70.3311 373.209 70.4424C373.191 70.5479 373.183 70.6445 373.183 70.7324C373.183 70.8848 373.235 71.0078 373.341 71.1016C373.446 71.1953 373.584 71.2422 373.754 71.2422C374.029 71.2422 374.328 71.1396 374.65 70.9346C374.973 70.7236 375.289 70.4307 375.6 70.0557C375.916 69.6807 376.209 69.2295 376.479 68.7021C376.748 68.1748 376.968 67.5947 377.138 66.9619L378.975 60.1152H383.246L382.71 62.1191H380.785L377.867 73H375.652Z" fill="#258042"/>
</svg>
