<svg width="21" height="24" viewBox="0 0 21 24" fill="none" xmlns="http://www.w3.org/2000/svg">
                                    <path d="M4.50013 23.5L4.50012 18.5H9.00002L4.50013 23.5Z" fill="currentColor"></path>
                                    <path fill-rule="evenodd" clip-rule="evenodd" d="M0 7.5C0 3.63401 3.13401 0.5 7 0.5H14C17.866 0.5 21 3.63401 21 7.5V12.5C21 16.366 17.866 19.5 14 19.5H7C3.13401 19.5 0 16.366 0 12.5V7.5ZM14.7219 8.89878C14.7371 7.1198 13.2219 5.48894 11.3444 5.26342C11.3071 5.25901 11.2666 5.25229 11.2236 5.24518L11.2233 5.24512C11.1303 5.22972 11.0342 5.21389 10.9372 5.21389C10.5524 5.21389 10.4496 5.4842 10.4225 5.64541C10.3961 5.80216 10.4213 5.93378 10.497 6.0368C10.6244 6.21009 10.8487 6.24085 11.0288 6.26549L11.0329 6.26606C11.0841 6.27314 11.1324 6.27981 11.173 6.28893C12.8599 6.66586 13.4279 7.25848 13.7055 8.93103C13.7123 8.97179 13.7154 9.022 13.7186 9.07526V9.07532V9.07566C13.7307 9.27559 13.756 9.69156 14.2032 9.69156C14.2404 9.69156 14.2804 9.68834 14.3221 9.68199C14.7385 9.61871 14.7255 9.23848 14.7192 9.0558V9.05529C14.7174 9.00403 14.7158 8.95557 14.7201 8.92331C14.7213 8.91516 14.7219 8.90697 14.7219 8.89878ZM10.9646 4.62353C10.9253 4.61749 10.878 4.61404 10.828 4.61044L10.8279 4.61043C10.621 4.59534 10.1908 4.56396 10.2163 4.1192C10.2273 3.92672 10.3137 3.60382 10.768 3.60382C10.8187 3.60382 10.8687 3.60723 10.913 3.61025L10.9153 3.6104L10.9207 3.61077C10.9558 3.61315 10.9888 3.61538 11.0159 3.61538C11.0336 3.61538 11.044 3.61436 11.0496 3.61354C11.061 3.61193 11.0723 3.61131 11.0842 3.6117C13.9368 3.70798 16.4083 6.29706 16.3731 9.15225C16.3726 9.1899 16.3745 9.2328 16.3765 9.27836L16.3766 9.28082C16.3852 9.47025 16.3957 9.70596 16.2441 9.86462C16.1571 9.95561 16.0355 10.0017 15.8827 10.0017L15.8676 10.0015C15.3804 9.99214 15.3731 9.53856 15.3695 9.3204V9.32028C15.3686 9.259 15.3676 9.20112 15.3616 9.15366C15.0086 6.36195 13.7347 5.04952 10.9646 4.62353ZM15.2279 12.7618C15.169 12.7168 15.1081 12.6702 15.0511 12.6243C14.7488 12.381 14.4271 12.1567 14.116 11.9398L14.1157 11.9396C14.0511 11.8946 13.9866 11.8496 13.9222 11.8044C13.5236 11.5245 13.1652 11.3884 12.8267 11.3884C12.3707 11.3884 11.9731 11.6404 11.6449 12.1372C11.4996 12.3575 11.3232 12.4646 11.1058 12.4646C10.9773 12.4646 10.8312 12.4279 10.6718 12.3555C9.38518 11.7721 8.46646 10.8775 7.94108 9.69673C7.68712 9.12602 7.76945 8.75297 8.21641 8.44935C8.47022 8.27709 8.94265 7.95639 8.90918 7.34226C8.87129 6.64486 7.33252 4.54647 6.68418 4.30814C6.40968 4.2072 6.12127 4.20626 5.82541 4.30579C5.08009 4.55635 4.54524 4.99637 4.27853 5.57821C4.02081 6.14042 4.03244 6.80055 4.31219 7.48725C5.12092 9.47266 6.25795 11.2037 7.69182 12.6321C9.09532 14.0305 10.8203 15.1759 12.8189 16.0365C12.9991 16.114 13.188 16.1562 13.326 16.1871L13.3362 16.1894C13.3789 16.199 13.4158 16.2073 13.4432 16.2148C13.4595 16.2192 13.4762 16.2216 13.493 16.2218H13.5088H13.5089C14.4489 16.2218 15.5776 15.3629 15.9242 14.3836C16.2279 13.5261 15.6734 13.1023 15.2279 12.7618ZM11.2434 6.87836H11.2436C11.6702 6.86805 12.1393 7.09059 12.5283 7.48575C12.9161 7.87969 13.1441 8.37426 13.1391 8.80989C13.1528 9.2273 13.0006 9.45792 12.6868 9.49526C12.6671 9.49765 12.6474 9.49879 12.6281 9.49879C12.3671 9.49879 12.1639 9.288 12.1338 8.98615C12.069 8.33879 11.7452 7.99011 11.1146 7.88893C10.9407 7.86092 10.7496 7.80986 10.6498 7.64324C10.5818 7.52967 10.5753 7.39127 10.6302 7.23186C10.7477 6.89092 11.0823 6.88244 11.2434 6.87836Z" fill="currentColor"></path>
                                </svg>