<svg width="21" height="23" viewBox="0 0 21 23" fill="none" xmlns="http://www.w3.org/2000/svg">
                                <path d="M4.50011 23L4.5001 18L9 18L4.50011 23Z" fill="white"></path>
                                <path fill-rule="evenodd" clip-rule="evenodd" d="M0 7C0 3.13401 3.13401 0 7 0H14C17.866 0 21 3.13401 21 7V12C21 15.866 17.866 19 14 19H7C3.13401 19 0 15.866 0 12V7ZM14.7219 8.39878C14.7371 6.6198 13.2219 4.98894 11.3444 4.76342C11.3071 4.75901 11.2666 4.75229 11.2236 4.74518L11.2233 4.74512C11.1303 4.72972 11.0342 4.71389 10.9372 4.71389C10.5524 4.71389 10.4496 4.9842 10.4225 5.14541C10.3961 5.30216 10.4213 5.43378 10.497 5.5368C10.6244 5.71009 10.8487 5.74085 11.0288 5.76549L11.0329 5.76606C11.0841 5.77314 11.1324 5.77981 11.173 5.78893C12.8599 6.16586 13.4279 6.75848 13.7055 8.43103C13.7123 8.47179 13.7154 8.522 13.7186 8.57526L13.7186 8.57532L13.7186 8.57566C13.7307 8.77559 13.756 9.19156 14.2032 9.19156H14.2032C14.2404 9.19156 14.2804 9.18834 14.3221 9.18199C14.7385 9.11871 14.7255 8.73848 14.7192 8.5558L14.7192 8.55529C14.7174 8.50403 14.7158 8.45557 14.7201 8.42331C14.7213 8.41516 14.7219 8.40697 14.7219 8.39878ZM10.9646 4.12353C10.9253 4.11749 10.878 4.11404 10.828 4.11044L10.8279 4.11043C10.621 4.09534 10.1908 4.06396 10.2163 3.6192C10.2273 3.42672 10.3137 3.10382 10.768 3.10382C10.8187 3.10382 10.8687 3.10723 10.913 3.11025L10.9153 3.1104L10.9207 3.11077C10.9558 3.11315 10.9888 3.11538 11.0159 3.11538C11.0336 3.11538 11.044 3.11436 11.0496 3.11354C11.061 3.11193 11.0723 3.11131 11.0842 3.1117C13.9368 3.20798 16.4083 5.79706 16.3731 8.65225C16.3726 8.6899 16.3745 8.7328 16.3765 8.77836L16.3766 8.78082C16.3852 8.97025 16.3957 9.20596 16.2441 9.36462C16.1571 9.45561 16.0355 9.5017 15.8827 9.5017L15.8676 9.50154C15.3804 9.49214 15.3731 9.03856 15.3695 8.8204L15.3695 8.82028C15.3686 8.759 15.3676 8.70112 15.3616 8.65366C15.0086 5.86195 13.7347 4.54952 10.9646 4.12353ZM15.2279 12.2618C15.169 12.2168 15.1081 12.1702 15.0511 12.1243C14.7488 11.881 14.4271 11.6567 14.116 11.4398L14.1157 11.4396C14.0511 11.3946 13.9866 11.3496 13.9222 11.3044C13.5236 11.0245 13.1652 10.8884 12.8267 10.8884C12.3707 10.8884 11.9731 11.1404 11.6449 11.6372C11.4996 11.8575 11.3232 11.9646 11.1058 11.9646C10.9773 11.9646 10.8312 11.9279 10.6718 11.8555C9.38518 11.2721 8.46646 10.3775 7.94108 9.19673C7.68712 8.62602 7.76945 8.25297 8.21641 7.94935C8.47022 7.77709 8.94265 7.45639 8.90918 6.84226C8.87129 6.14486 7.33252 4.04647 6.68418 3.80814C6.40968 3.7072 6.12127 3.70626 5.82541 3.80579C5.08009 4.05635 4.54524 4.49637 4.27853 5.07821C4.02081 5.64042 4.03244 6.30055 4.31219 6.98725C5.12092 8.97266 6.25795 10.7037 7.69182 12.1321C9.09532 13.5305 10.8203 14.6759 12.8189 15.5365C12.9991 15.614 13.188 15.6562 13.326 15.6871L13.3362 15.6894L13.3362 15.6894C13.3789 15.699 13.4158 15.7073 13.4432 15.7148C13.4595 15.7192 13.4762 15.7216 13.493 15.7218L13.5088 15.7218H13.5089C14.4489 15.7218 15.5776 14.8629 15.9242 13.8836C16.2279 13.0261 15.6734 12.6023 15.2279 12.2618ZM11.2434 6.37836L11.2436 6.37836C11.6702 6.36805 12.1393 6.59059 12.5283 6.98575C12.9161 7.37969 13.1441 7.87426 13.1391 8.30989C13.1528 8.7273 13.0006 8.95792 12.6868 8.99526C12.6671 8.99765 12.6474 8.99879 12.6281 8.99879H12.6281C12.3671 8.99879 12.1639 8.788 12.1338 8.48615C12.069 7.83879 11.7452 7.49011 11.1146 7.38893C10.9407 7.36092 10.7496 7.30986 10.6498 7.14324C10.5818 7.02967 10.5753 6.89127 10.6302 6.73186C10.7477 6.39092 11.0823 6.38244 11.2434 6.37836Z" fill="white"></path>
</svg>