<svg xmlns="http://www.w3.org/2000/svg" viewBox="0 0 259.3 261.1"><defs><style>.cls-1{isolation:isolate;}.cls-2{fill:#cae1fc;}.cls-3{fill:#daa6ac;}.cls-22,.cls-26,.cls-3,.cls-5,.cls-8{opacity:0.3;}.cls-4{fill:#cbcfff;opacity:0.6;}.cls-5{fill:#a8bcff;}.cls-6{fill:#b0bcd8;}.cls-7{fill:#fa7071;}.cls-10,.cls-11,.cls-12,.cls-8{fill:#fff;}.cls-9{fill:#2e3054;}.cls-10{opacity:0.2;}.cls-12{opacity:0.4;}.cls-13{fill:#2a2b7c;}.cls-14{fill:#d55765;}.cls-15{fill:#0b1238;}.cls-16{fill:#ffdcd8;}.cls-17{fill:#c3cfce;}.cls-17,.cls-25,.cls-26{mix-blend-mode:multiply;}.cls-18{fill:#f9e0e9;}.cls-19{fill:#3d3942;}.cls-20{fill:#ebf7ff;}.cls-21{fill:#e4edf1;}.cls-23{fill:#596a83;}.cls-24{fill:#f5b29c;}.cls-25{fill:#e4d9eb;}.cls-26{fill:#99add1;}.cls-27{fill:#93c8f6;}.cls-28{fill:#e4e9f6;}.cls-29{fill:#7ab6f6;}</style></defs><title>Ресурс 1</title><g class="cls-1"><g id="Слой_2" data-name="Слой 2"><g id="Layer_2" data-name="Layer 2"><path class="cls-2" d="M259.3,148.1a80,80,0,1,1-80-80A80,80,0,0,1,259.3,148.1Z"/><path class="cls-3" d="M250.8,80a80,80,0,1,1-80-80A80,80,0,0,1,250.8,80Z"/><path class="cls-4" d="M193.5,103.7A96.8,96.8,0,1,1,96.7,6.9,96.7,96.7,0,0,1,193.5,103.7Z"/><path class="cls-4" d="M118.8,249.9c0,2-24.2,3.7-53.9,3.7s-53.8-1.7-53.8-3.7,24.1-3.7,53.8-3.7S118.8,247.9,118.8,249.9Z"/><ellipse class="cls-5" cx="186.7" cy="257.8" rx="31.9" ry="3.3"/><ellipse class="cls-4" cx="53.2" cy="254.3" rx="31.9" ry="3.3"/><path class="cls-6" d="M213,233.7c0,2.1-32.4,3.7-72.4,3.7s-72.4-1.6-72.4-3.7,32.4-3.7,72.4-3.7S213,231.7,213,233.7Z"/><path class="cls-7" d="M217.5,103.8c3-2,3.5,1.8,3.5,1.8s.4-3.8,3.4-1.8-3.4,6.5-3.4,6.5h-.1S214.5,105.8,217.5,103.8Z"/><circle class="cls-8" cx="32.3" cy="95.4" r="12.7"/><circle class="cls-8" cx="49.3" cy="133.4" r="8.8"/><circle class="cls-8" cx="224.8" cy="52.9" r="6.3"/><path class="cls-9" d="M206.7,229.3a4.4,4.4,0,0,1-4.3,4.4H75.8a4.4,4.4,0,0,1-4.3-4.4V15.7a4.3,4.3,0,0,1,4.3-4.4H202.4a4.3,4.3,0,0,1,4.3,4.4Z"/><path class="cls-10" d="M202.4,11.3H75.8a4.3,4.3,0,0,0-4.3,4.4V187.8S204.8,11.3,202.4,11.3Z"/><path class="cls-11" d="M198.7,198.5a3.6,3.6,0,0,1-3.8,3.3H83.3a3.6,3.6,0,0,1-3.8-3.3V38.3A3.6,3.6,0,0,1,83.3,35H194.9a3.6,3.6,0,0,1,3.8,3.3Z"/><rect class="cls-4" x="100.2" y="133.9" width="78.4" height="60.95"/><circle class="cls-8" cx="178.4" cy="153.6" r="12.3" transform="translate(-45 79.3) rotate(-22.3)"/><path class="cls-12" d="M122.5,161.6a6.3,6.3,0,0,1-6.3,6.3,6.3,6.3,0,1,1,6.3-6.3Z"/><path class="cls-13" d="M144.9,185.4H128.2a3.3,3.3,0,0,1-3-3.5c0-2,1.3-3.6,3-3.6h16.7a.8.8,0,0,1,.7.8.7.7,0,0,1-.7.7H128.2a1.9,1.9,0,0,0-1.6,2.1c0,1.1.8,2.1,1.6,2.1h16.7a.7.7,0,1,1,0,1.4Z"/><path class="cls-13" d="M127.1,179.5c-.3,0-.5-.2-.7-.5-1.5-4.2-6-15.6-7.9-17.6a3.1,3.1,0,0,0-2-1.1,1.5,1.5,0,0,0-1,.4.7.7,0,0,1-1.1-1,2.8,2.8,0,0,1,2-.9,4.5,4.5,0,0,1,3.2,1.6c2.5,2.6,8,17.4,8.2,18.1a.6.6,0,0,1-.4.9Z"/><path class="cls-13" d="M129.6,191.2a3.6,3.6,0,0,1-3.6-3.6,3.7,3.7,0,0,1,3.6-3.7,3.8,3.8,0,0,1,3.7,3.7A3.7,3.7,0,0,1,129.6,191.2Zm0-5.8a2.1,2.1,0,0,0-2.1,2.2,2.1,2.1,0,0,0,2.1,2.1,2.1,2.1,0,0,0,2.2-2.1A2.2,2.2,0,0,0,129.6,185.4Z"/><path class="cls-13" d="M144.8,191.2a3.6,3.6,0,0,1-3.6-3.6,3.7,3.7,0,1,1,7.3,0A3.6,3.6,0,0,1,144.8,191.2Zm0-5.8a2.2,2.2,0,0,0-2.1,2.2,2.1,2.1,0,0,0,2.1,2.1,2.1,2.1,0,0,0,2.2-2.1A2.2,2.2,0,0,0,144.8,185.4Z"/><path class="cls-13" d="M148.9,166.9H122.4a.8.8,0,0,1-.7-.8.7.7,0,0,1,.7-.7h26.5a.7.7,0,0,1,.7.7A.8.8,0,0,1,148.9,166.9Z"/><path class="cls-13" d="M144.9,179.8h-.2a.9.9,0,0,1-.5-1l4-12.9a.7.7,0,0,1,.9-.5.9.9,0,0,1,.5,1l-4,12.9A.8.8,0,0,1,144.9,179.8Z"/><path class="cls-13" d="M127.8,179.5a.7.7,0,0,1-.7-.7V166.2a.7.7,0,0,1,1.4,0v12.6A.7.7,0,0,1,127.8,179.5Z"/><path class="cls-13" d="M133.4,179.5a.7.7,0,0,1-.7-.7V166.2a.7.7,0,0,1,.7-.7.7.7,0,0,1,.8.7v12.6A.7.7,0,0,1,133.4,179.5Z"/><path class="cls-13" d="M139.1,179.5a.7.7,0,0,1-.7-.7V166.2a.7.7,0,1,1,1.4,0v12.6A.7.7,0,0,1,139.1,179.5Z"/><path class="cls-13" d="M144.8,179.5a.8.8,0,0,1-.8-.7V166.2a.8.8,0,0,1,.8-.7.7.7,0,0,1,.7.7v12.6A.7.7,0,0,1,144.8,179.5Z"/><path class="cls-13" d="M147.3,171H124.2a.8.8,0,0,1-.8-.7.9.9,0,0,1,.8-.8h23.1a.9.9,0,0,1,.8.8A.8.8,0,0,1,147.3,171Z"/><path class="cls-13" d="M145.7,175.3H126.1a.7.7,0,1,1,0-1.4h19.6a.7.7,0,1,1,0,1.4Z"/><path class="cls-13" d="M115.7,164.6a2.6,2.6,0,0,1-2.6-2.6,2.6,2.6,0,0,1,2.6-2.6,2.6,2.6,0,0,1,2.6,2.6A2.5,2.5,0,0,1,115.7,164.6Zm0-3.7a1.1,1.1,0,0,0-1.1,1.1,1.1,1.1,0,0,0,1.1,1.2,1.2,1.2,0,0,0,1.2-1.2A1.1,1.1,0,0,0,115.7,160.9Z"/><path class="cls-13" d="M145.6,164.3h-.4a.8.8,0,0,1-.3-.8l2-6.6a9.2,9.2,0,0,1,6.4-15.8h1a9.2,9.2,0,0,1-1,18.3h-1.1l-6.1,4.8Zm7.7-21.8a7.7,7.7,0,0,0-5.1,13.5.8.8,0,0,1,.2.8l-1.4,4.8,4.6-3.6a.4.4,0,0,1,.5-.1h1.2a7.8,7.8,0,0,0,.8-15.5Z"/><polygon class="cls-13" points="152.9 145.5 152.9 154.4 154.3 154.4 154.3 145.5 152.9 145.5"/><polygon class="cls-13" points="158 149.2 149.2 149.3 149.2 150.7 158 150.7 158 149.2"/><polygon class="cls-14" points="65.5 248 17.2 248 17.8 180.6 67.5 179.8 65.5 248"/><polygon class="cls-9" points="67.5 179.8 72.6 243.1 65.5 248 67.5 179.8"/><path class="cls-11" d="M54.4,185.3c0,.6-.6,1-1.3,1s-1.3-.4-1.3-1a1.3,1.3,0,0,1,2.6,0Z"/><path class="cls-11" d="M31.2,185.2c0,.6-.6,1-1.3,1s-1.3-.4-1.3-1a1.3,1.3,0,0,1,2.6,0Z"/><path class="cls-15" d="M53.5,185c-.1-2.3-.7-16.2-11.8-16.5a10.4,10.4,0,0,0-6.7,2.2c-5.5,4.4-5.7,14.1-5.7,14.5l.4.2.3-.2c0-.1.2-9.8,5.5-14.1a9.5,9.5,0,0,1,6.2-2.1c10.4.3,11.1,13.5,11.1,16a1,1,0,0,0,.1.4c0,.1.1.2.3.2l.3-.2Z"/><polygon class="cls-16" points="105 250.8 60.5 250.8 61.1 186.3 106.8 185.5 105 250.8"/><polygon class="cls-17" points="106.4 199.9 102.4 194.8 98.3 194.3 101.8 213.2 102.2 213.2 106.1 210.2 106.4 199.9"/><polygon class="cls-9" points="106.8 185.5 111.5 246.1 105 250.8 106.8 185.5"/><path class="cls-18" d="M92.8,194.2a1,1,0,0,1-1,1.1,1.1,1.1,0,0,1-1.1-1.1,1.1,1.1,0,0,1,1.1-1A1,1,0,0,1,92.8,194.2Z"/><path class="cls-18" d="M71.9,194.1a1.1,1.1,0,0,1-2.2,0,1.1,1.1,0,0,1,2.2,0Z"/><path class="cls-17" d="M96.4,196.7a.7.7,0,0,0-.1,1,.6.6,0,0,0,.9.1.7.7,0,0,0,.2-1A.8.8,0,0,0,96.4,196.7Zm.7,1.1a.5.5,0,0,1-.7,0,.5.5,0,0,1,.1-.7.5.5,0,0,1,.7.1C97.3,197.4,97.3,197.7,97.1,197.8Z"/><path class="cls-11" d="M97.9,194.2l-4.3,3.3-.4,3.9,8.4,11,8.7-6.7-8.5-11Zm-.8,3.4c-.2.2-.5.2-.6-.1s-.2-.5,0-.6.6-.2.7.1A.4.4,0,0,1,97.1,197.6Z"/><path class="cls-19" d="M96.2,196.5a1,1,0,0,0-.1,1.4.9.9,0,0,0,1.3.1.9.9,0,0,0,.2-1.4A1,1,0,0,0,96.2,196.5Zm.9,1.1c-.2.2-.5.2-.6-.1s-.2-.5,0-.6.6-.2.7.1A.4.4,0,0,1,97.1,197.6Z"/><path class="cls-9" d="M91.5,189.8h-.2v.2c-.6.8.4,2.7.8,3.5a13.6,13.6,0,0,0,2.5,3.4l.3-.3a11.3,11.3,0,0,1-2.4-3.3,5.6,5.6,0,0,1-.9-2.9c1.1.7,6.1,4.3,5.1,6.6,0,.2-.1.3-.2.3v.3h0a1.1,1.1,0,0,0,.6-.7C98.2,194.1,91.7,190,91.5,189.8Z"/><path class="cls-15" d="M92.1,194.5h-.5v-1a10.9,10.9,0,0,0-.1-1.7c-.3-5.4-1.8-17.9-9.9-18.2a6.6,6.6,0,0,0-4.9,1.9c-5.4,5.2-5.6,18.7-5.6,18.8h-.5c0-.5.2-13.9,5.7-19.1a6.9,6.9,0,0,1,5.4-2.1c8.4.3,10.1,13.2,10.4,18.7v1.6A3.1,3.1,0,0,1,92.1,194.5Z"/><path class="cls-9" d="M101.3,199c.5-.5,1.2-.4,1.7.3a1.1,1.1,0,0,1,.1,1.7l-1.7,1.5q-.9.8-1.8-.3a1.1,1.1,0,0,1,0-1.7Zm-1.2,2.2a.4.4,0,0,0,0,.6c.2.2.4.3.6.1l1.8-1.6c.3-.2.2-.4.1-.6a.5.5,0,0,0-.7-.1Zm5.2.7.5.6-7.5,2-.5-.6Zm-3,2.1c.5-.5,1.1-.4,1.7.2s.6,1.3.1,1.8l-1.7,1.5q-.9.8-1.8-.3a1.1,1.1,0,0,1,0-1.7Zm-1.2,2.2a.4.4,0,0,0,0,.6c.2.2.4.3.6.1l1.8-1.6c.3-.2.2-.4.1-.6s-.4-.3-.7-.1Z"/><path class="cls-9" d="M92.4,193.2a8.3,8.3,0,0,1-.9-2.1c-.1,0-.1.6-.2.7l.8,1.8v.3l.3-.3C92.5,193.5,92.4,193.3,92.4,193.2Z"/><path class="cls-15" d="M71.1,194.3c0,.1-.1.2-.3.2l-.2-.2c0-.2.1-.3.2-.3A.3.3,0,0,1,71.1,194.3Z"/><path class="cls-15" d="M92.2,194.5l-.3.2c-.2,0-.3-.1-.3-.2a.3.3,0,0,1,.3-.3A.3.3,0,0,1,92.2,194.5Z"/><polygon class="cls-15" points="105.1 250.4 107.7 245.3 111.1 246.1 105.1 250.4"/><polygon class="cls-9" points="75.6 199.5 80.1 251.6 73.9 255.7 75.6 199.5"/><polygon class="cls-20" points="73.9 255.7 31.4 255.7 32 200.2 75.6 199.5 73.9 255.7"/><path class="cls-21" d="M63.9,206.7a1.1,1.1,0,0,1-2.2,0,1.1,1.1,0,0,1,2.2,0Z"/><path class="cls-21" d="M43.2,206.4a1.1,1.1,0,0,1-2.2,0,1.1,1.1,0,0,1,2.2,0Z"/><polygon class="cls-15" points="73.9 255.7 76.7 250.6 80.1 251.6 73.9 255.7"/><path class="cls-15" d="M63,206.7v-.2c0-2.6-.3-20-10.3-20.3a7.1,7.1,0,0,0-5.4,2.1c-4.9,4.7-5.4,15.8-5.5,17.9v.3a.3.3,0,0,0,.3.3.2.2,0,0,0,.2-.2v-.3c0-1.7.5-13.1,5.3-17.7a6.7,6.7,0,0,1,5-1.9c9.5.4,9.8,17.7,9.8,19.8v.2a.3.3,0,0,0,.3.3l.2-.2Z"/><g class="cls-22"><path class="cls-11" d="M144.9,185.4H128.2a3.3,3.3,0,0,1-3-3.5c0-2,1.3-3.6,3-3.6h16.7a.8.8,0,0,1,.7.8.7.7,0,0,1-.7.7H128.2a1.9,1.9,0,0,0-1.6,2.1c0,1.1.8,2.1,1.6,2.1h16.7a.7.7,0,1,1,0,1.4Z"/><path class="cls-11" d="M127.1,179.5c-.3,0-.5-.2-.7-.5-1.5-4.2-6-15.6-7.9-17.6a3.1,3.1,0,0,0-2-1.1,1.5,1.5,0,0,0-1,.4.7.7,0,0,1-1.1-1,2.8,2.8,0,0,1,2-.9,4.5,4.5,0,0,1,3.2,1.6c2.5,2.6,8,17.4,8.2,18.1a.6.6,0,0,1-.4.9Z"/><path class="cls-11" d="M129.6,191.2a3.6,3.6,0,0,1-3.6-3.6,3.7,3.7,0,0,1,3.6-3.7,3.8,3.8,0,0,1,3.7,3.7A3.7,3.7,0,0,1,129.6,191.2Zm0-5.8a2.1,2.1,0,0,0-2.1,2.2,2.1,2.1,0,0,0,2.1,2.1,2.1,2.1,0,0,0,2.2-2.1A2.2,2.2,0,0,0,129.6,185.4Z"/><path class="cls-11" d="M144.8,191.2a3.6,3.6,0,0,1-3.6-3.6,3.7,3.7,0,1,1,7.3,0A3.6,3.6,0,0,1,144.8,191.2Zm0-5.8a2.2,2.2,0,0,0-2.1,2.2,2.1,2.1,0,0,0,2.1,2.1,2.1,2.1,0,0,0,2.2-2.1A2.2,2.2,0,0,0,144.8,185.4Z"/><path class="cls-11" d="M148.9,166.9H122.4a.8.8,0,0,1-.7-.8.7.7,0,0,1,.7-.7h26.5a.7.7,0,0,1,.7.7A.8.8,0,0,1,148.9,166.9Z"/><path class="cls-11" d="M144.9,179.8h-.2a.9.9,0,0,1-.5-1l4-12.9a.7.7,0,0,1,.9-.5.9.9,0,0,1,.5,1l-4,12.9A.8.8,0,0,1,144.9,179.8Z"/><path class="cls-11" d="M127.8,179.5a.7.7,0,0,1-.7-.7V166.2a.7.7,0,0,1,1.4,0v12.6A.7.7,0,0,1,127.8,179.5Z"/><path class="cls-11" d="M133.4,179.5a.7.7,0,0,1-.7-.7V166.2a.7.7,0,0,1,.7-.7.7.7,0,0,1,.8.7v12.6A.7.7,0,0,1,133.4,179.5Z"/><path class="cls-11" d="M139.1,179.5a.7.7,0,0,1-.7-.7V166.2a.7.7,0,1,1,1.4,0v12.6A.7.7,0,0,1,139.1,179.5Z"/><path class="cls-11" d="M144.8,179.5a.8.8,0,0,1-.8-.7V166.2a.8.8,0,0,1,.8-.7.7.7,0,0,1,.7.7v12.6A.7.7,0,0,1,144.8,179.5Z"/><path class="cls-11" d="M147.3,171H124.2a.8.8,0,0,1-.8-.7.9.9,0,0,1,.8-.8h23.1a.9.9,0,0,1,.8.8A.8.8,0,0,1,147.3,171Z"/><path class="cls-11" d="M145.7,175.3H126.1a.7.7,0,1,1,0-1.4h19.6a.7.7,0,1,1,0,1.4Z"/><path class="cls-11" d="M115.7,164.6a2.6,2.6,0,0,1-2.6-2.6,2.6,2.6,0,0,1,2.6-2.6,2.6,2.6,0,0,1,2.6,2.6A2.5,2.5,0,0,1,115.7,164.6Zm0-3.7a1.1,1.1,0,0,0-1.1,1.1,1.1,1.1,0,0,0,1.1,1.2,1.2,1.2,0,0,0,1.2-1.2A1.1,1.1,0,0,0,115.7,160.9Z"/><path class="cls-11" d="M145.6,164.3h-.4a.8.8,0,0,1-.3-.8l2-6.6a9.2,9.2,0,0,1,6.4-15.8h1a9.2,9.2,0,0,1-1,18.3h-1.1l-6.1,4.8Zm7.7-21.8a7.7,7.7,0,0,0-5.1,13.5.8.8,0,0,1,.2.8l-1.4,4.8,4.6-3.6a.4.4,0,0,1,.5-.1h1.2a7.8,7.8,0,0,0,.8-15.5Z"/><polygon class="cls-11" points="152.9 145.5 152.9 154.4 154.3 154.4 154.3 145.5 152.9 145.5"/><polygon class="cls-11" points="158 149.2 149.2 149.3 149.2 150.7 158 150.7 158 149.2"/></g><path class="cls-23" d="M149.7,217.7a10.7,10.7,0,0,1-21.3,0,10.7,10.7,0,1,1,21.3,0Z"/><path class="cls-9" d="M147.2,217.7a8.1,8.1,0,1,1-8.1-8.1A8.1,8.1,0,0,1,147.2,217.7Z"/><path class="cls-24" d="M212.9,138.2s4.9,12.4,5.1,21.5c.1,3.1-4.9,13.9-4.9,14.5S206.1,139.9,212.9,138.2Z"/><path class="cls-24" d="M201.8,128.1s.4,3-1.3,8.3c0,0,3.9,2.3,7.2-.3l-.9-8.7Z"/><rect class="cls-25" x="105.5" y="111.7" width="74.6" height="13.22" rx="0.9" ry="0.9"/><rect class="cls-7" x="104.1" y="109.9" width="74.6" height="13.22" rx="0.9" ry="0.9"/><path class="cls-26" d="M206.7,66.8l-8.5-6.1v-.3H79.2l-7.7,5.5V98.6a11.9,11.9,0,0,0,7.7-11.1,11.9,11.9,0,0,0,23.8,0,11.9,11.9,0,0,0,23.8,1.4,11.9,11.9,0,0,0,23.7-1.4,11.9,11.9,0,0,0,23.8,0A12,12,0,0,0,198,89.7a11.8,11.8,0,0,0,8.7,9.3Z"/><path class="cls-14" d="M78.9,58V81.5c0,5.8-5.4,10.4-12,10.4s-12-4.6-12-10.4V72.7Z"/><polygon class="cls-7" points="78.9 72.7 54.9 72.7 71.8 39.8 78.9 39.8 78.9 72.7"/><path class="cls-20" d="M102.8,58V81.5c0,5.8-5.3,10.4-11.9,10.4s-12-4.6-12-10.4V58Z"/><rect class="cls-11" x="78.9" y="39.8" width="23.9" height="32.89"/><path class="cls-14" d="M126.8,58V81.5c0,5.8-5.4,10.4-12,10.4s-12-4.6-12-10.4V58Z"/><rect class="cls-7" x="102.8" y="39.8" width="23.9" height="32.89"/><path class="cls-20" d="M150.5,58V81.5c0,5.8-5.3,10.4-11.9,10.4s-12-4.6-12-10.4V58Z"/><rect class="cls-11" x="126.6" y="39.8" width="23.9" height="32.89"/><path class="cls-14" d="M174.5,58V81.5c0,5.8-5.4,10.4-12,10.4s-12-4.6-12-10.4V58Z"/><rect class="cls-7" x="150.5" y="39.8" width="23.9" height="32.89"/><path class="cls-14" d="M221.9,72.7v8.8c0,5.8-5.3,10.4-11.9,10.4s-12-4.6-12-10.4V58Z"/><polygon class="cls-7" points="221.9 72.7 198 72.7 198 39.8 207.3 39.8 221.9 72.7"/><path class="cls-20" d="M198.4,58V81.5c0,5.8-5.3,10.4-11.9,10.4s-12-4.6-12-10.4V58Z"/><rect class="cls-11" x="174.5" y="39.8" width="23.9" height="32.89"/><rect class="cls-27" x="71.2" y="34.4" width="136.2" height="5.86"/><rect class="cls-23" x="132.1" y="20.7" width="18.4" height="3.59"/><path class="cls-24" d="M198.7,218.4l-18.5,39.3L169,259.1s3.4-4.8,8.2-3.8l6.2-21.8,5.7-21.9S198.4,206.2,198.7,218.4Z"/><path class="cls-24" d="M213.7,214.6s1.8,28.2-6.4,45.6c0,0-10.7-3.4-9.7-4s3.3-1.4,5.5.4c0,0,5-21.1,1.9-34.8S208.9,212.7,213.7,214.6Z"/><path class="cls-28" d="M194.1,143l-3.4,9.6s3.9,3,3.7,7.6-10.9,43.7-10.9,43.7,20.4,11.7,31.5,2.7c.6-.4,0-5.2,0-5.8-.1-4.7-.1-9.4-.2-14.1-.1-2.6-1.8-6.7-2.1-9.3s-2.2-7-2.3-8.8c-.3-5.5.2-4,2.9-13.8,1.4-4.7.1-12-4.6-14.6S197.7,139.2,194.1,143Z"/><path class="cls-24" d="M207.7,131.6c-1.1,5.3-9.3,3.5-10.7.2a13,13,0,0,1,.4-11.4c1.6-5.1,3-6,6.7-6.2C204.1,114.2,211,116,207.7,131.6Z"/><path class="cls-29" d="M193,167.2s-9.5,20.1-10.2,21.7c-2,4.5-3.8,9.3-5.5,14s-3.2,10.7-.8,15.6,11,4.2,15.3,6.8,13.2,3.3,17.7-.2c7.6-6,7,.9,12.1-3.3s-.9-16.6-3.1-26.5a132.3,132.3,0,0,0-8.1-27.5S200.2,171.3,193,167.2Z"/><path class="cls-24" d="M198.3,140.8c-3.2-1.8-11.3,11.2-13.4,11s-9.2-12.5-9.7-14.3-.3-6.8-1.8-7.5.6,2.5-.3,2.6-4.6-7.2-5.4-6.8,2.7,6.5,2.2,6.5a10,10,0,0,0-1.4.8c-.5.2-1.2.3-1.4.8s-.2,2.4,2.4,3.9,11.8,21.5,13.1,22,13.5-8,13.5-8S206.2,145.4,198.3,140.8Z"/><path class="cls-15" d="M197,122.3s1.8,1.3,4.6-.4a2.9,2.9,0,0,1-.2,3.3s1.8-1.3,2.1,1-2.3,2.3-2.3,2.3-4.6,9.5-4.6,14.8,5.8,14.7,16.1,11a8.5,8.5,0,0,0,5.2-7.5s5.1,2.1,6.7-1.5c6.2-14.2-6.8-21.8-6.8-21.8s-.8-11.5-12.4-10.9C197.7,113.1,193.9,119.7,197,122.3Z"/><path class="cls-9" d="M172.6,256a11.1,11.1,0,0,0-3.5,3.1l11.2-1.4.9-2A9.4,9.4,0,0,1,172.6,256Z"/><path class="cls-9" d="M208.2,258.5c-1.8-.3-5.8-.9-7.1-1.5s-.1-.9.6-1.1a7.3,7.3,0,0,0-4,.3c-1,.6,9.7,4,9.7,4S207.9,259.1,208.2,258.5Z"/><path class="cls-9" d="M192.2,168.9l-.4.8c1,.3,6.7,2.6,12.2,2.6a11.8,11.8,0,0,0,7.4-2.2l-.4-.8C205.6,173.9,193.7,169.4,192.2,168.9Z"/><path class="cls-11" d="M113.6,117.7l-.6,1.4h-1.1l2.7-6.1h1.1l2.7,6.1h-1.1l-.6-1.4Zm2.6-.9-1.1-2.5-1.1,2.5Z"/><path class="cls-11" d="M123.8,113.8a2.8,2.8,0,0,1,.9,2.2,3.4,3.4,0,0,1-.8,2.3,4,4,0,0,1-2.6.8h-2.1V113h2.1A3.6,3.6,0,0,1,123.8,113.8Zm-.1,2.3q0-2.1-2.4-2.1h-1v4.1h1.1a2.3,2.3,0,0,0,1.7-.5A1.9,1.9,0,0,0,123.7,116.1Z"/><path class="cls-11" d="M130.7,113.8a2.8,2.8,0,0,1,.9,2.2,3,3,0,0,1-.9,2.3,3.8,3.8,0,0,1-2.6.8h-2V113h2.1A3.7,3.7,0,0,1,130.7,113.8Zm-.2,2.3q0-2.1-2.4-2.1h-1v4.1h1.1a2.2,2.2,0,0,0,1.7-.5A1.9,1.9,0,0,0,130.5,116.1Z"/><path class="cls-11" d="M137.6,113.9v5.2h-1v-5.2h-1.9V113h4.7v.9Z"/><path class="cls-11" d="M145.5,118.3A3.2,3.2,0,0,1,140,116a2.9,2.9,0,0,1,.9-2.2,3.4,3.4,0,0,1,4.6,0,2.9,2.9,0,0,1,.9,2.2A3.2,3.2,0,0,1,145.5,118.3Zm-.7-3.9a2.5,2.5,0,0,0-1.6-.6,2,2,0,0,0-1.5.6,2.4,2.4,0,0,0,0,3.2,2,2,0,0,0,1.5.6,2.3,2.3,0,0,0,1.6-3.8Z"/><path class="cls-11" d="M152.9,118.2l.9-.2a1.6,1.6,0,0,0,.8-.6l.7.7a3,3,0,0,1-2.4,1.1,3.3,3.3,0,0,1-2.3-.9,3.2,3.2,0,0,1-.9-2.3,2.7,2.7,0,0,1,1-2.2,3.2,3.2,0,0,1,2.3-.9,3,3,0,0,1,2.4,1l-.7.7a2.1,2.1,0,0,0-.8-.6H153a2.5,2.5,0,0,0-1.6.6,2,2,0,0,0-.6,1.5,2.5,2.5,0,0,0,.6,1.6A2.2,2.2,0,0,0,152.9,118.2Z"/><path class="cls-11" d="M157.4,117.7l-.6,1.4h-1.1l2.7-6.1h1.1l2.7,6.1h-1.1l-.6-1.4Zm2.7-.9-1.1-2.5-1.2,2.5Z"/><path class="cls-11" d="M167.9,115a1.8,1.8,0,0,1-1.3,1.9l1.6,2.2h-1.3l-1.5-2h-1.3v2H163V113h2.3a3.4,3.4,0,0,1,2,.5A1.8,1.8,0,0,1,167.9,115Zm-1.4.9a1,1,0,0,0,.4-.9c0-.4-.1-.7-.4-.8a1.6,1.6,0,0,0-1.1-.3h-1.3v2.2h1.3Z"/><path class="cls-11" d="M171.6,113.9v5.2h-1v-5.2h-1.9V113h4.8v.9Z"/><path class="cls-9" d="M100.3,143.5c0,.5-.3.8-.6.8a.7.7,0,0,1-.7-.8v-2.4a.8.8,0,0,1,.7-.8c.3,0,.6.4.6.8Z"/><path class="cls-9" d="M100.3,133.9c0,.4-.3.8-.6.8a.8.8,0,0,1-.7-.8v-2.4a.7.7,0,0,1,.7-.8c.3,0,.6.3.6.8Z"/><path class="cls-9" d="M105.2,140a.6.6,0,0,1,.3.9.6.6,0,0,1-.9.2l-2.1-1.3c-.4-.2-.6-.6-.4-.9s.6-.3,1-.1Z"/><path class="cls-9" d="M96.9,135.2a.7.7,0,0,1,.3.9c-.2.3-.6.3-1,.1L94.1,135a.7.7,0,0,1-.3-.9.6.6,0,0,1,.9-.1Z"/><path class="cls-9" d="M104.6,134a.6.6,0,0,1,.9.1.6.6,0,0,1-.3.9l-2.1,1.2c-.4.2-.8.2-1-.1s0-.7.4-.9Z"/><path class="cls-9" d="M96.2,138.8c.4-.2.8-.2,1,.1a.7.7,0,0,1-.3.9l-2.2,1.3a.6.6,0,0,1-.9-.2.7.7,0,0,1,.3-.9Z"/><path class="cls-7" d="M49.3,45.8a6.9,6.9,0,0,1-2-.3,9,9,0,1,1,4-17.5.7.7,0,0,1,.5.8.7.7,0,0,1-.8.5,7.8,7.8,0,0,0-9.2,5.8,7.6,7.6,0,1,0,14.9-.3.8.8,0,0,1,.4-.9.8.8,0,0,1,.9.5,9.3,9.3,0,0,1,0,4.4A9,9,0,0,1,49.3,45.8Z"/><path class="cls-7" d="M49.2,38.7l-.5-.2-4.9-4.4a.7.7,0,0,1,0-1,.6.6,0,0,1,.9,0l4.4,4L60.3,24.6a.6.6,0,0,1,.9,0,.8.8,0,0,1,.1,1L49.7,38.5l-.5.2Z"/></g></g></g></svg>